<?xml version="1.0" encoding="UTF-8"?>
<svg width="67px" height="253px" viewBox="0 0 67 253" version="1.1" xmlns="http://www.w3.org/2000/svg" xmlns:xlink="http://www.w3.org/1999/xlink">
    <!-- Generator: Sketch 53.2 (72643) - https://sketchapp.com -->
    <title>8</title>
    <desc>Created with Sketch.</desc>
    <g id="Landing-Page" stroke="none" stroke-width="1" fill="none" fill-rule="evenodd">
        <g id="Final" transform="translate(-1269.000000, -2656.000000)">
            <g id="#3" transform="translate(0.000000, 2562.000000)">
                <g id="Group-5" transform="translate(873.000000, 78.000000)">
                    <g id="5.-Illustrations-/1.-Characters/Waiting" transform="translate(340.000000, 0.000000)">
                        <g id="Character" transform="translate(56.700000, 16.588333)">
                            <path d="M17.5527941,11.6770116 C16.0135052,11.0948935 14.6821643,9.85273712 13.9843065,8.14887087 C12.7106652,5.03504657 14.0362848,1.56360263 16.9386786,0.387940288 C19.8453668,-0.783824296 23.2286463,0.788435294 24.5021889,3.89787462 C24.6075751,4.15552487 24.6951652,4.41562358 24.7655386,4.67666758 C25.6564123,4.34444506 26.6141718,4.09638935 27.6376212,3.94123722 C39.3327407,2.16921734 46.6356191,14.6240273 44.0188345,23.2064112 C41.766836,30.5921822 38.3213109,34.2239216 31.8863173,34.5069965 C23.7959158,34.8631545 16.8013038,28.6944595 16.2435119,20.3435053 C16.0289342,17.1591464 16.4758018,14.1940467 17.5527941,11.6770116 Z" id="Combined-Shape" fill="#8284D3"></path>
                            <path d="M37.0383193,44.9320671 C40.8338224,45.6054793 44.6673229,46.9609982 48.15,49.3756951 L43.080627,53.6212296 C42.880295,54.8203267 41.6600474,60.4356318 36.5319453,59.1056661 L31.6252024,63.215 L14.4,47.1084048 C14.4,47.1084048 21.0157316,44.6060292 29.3093929,44.3898661 C28.8925329,41.2744605 28.6901336,37.6932359 28.9325093,33.755973 C25.6517147,33.4734753 23.8659999,31.7495495 23.2789957,30.687726 C22.4848189,29.2498124 23.032357,27.6990251 24.4184668,27.4438322 C25.8207976,27.192839 26.9058198,27.551339 27.6682256,28.0109587 C27.5644469,27.4444227 27.4915049,26.8617168 27.4521237,26.2660191 C27.0328378,19.9990714 30.4808478,14.6694668 35.1571189,14.3602908 C39.8284079,14.0560224 43.9571409,18.8850565 44.3715434,25.1470965 C44.7908293,31.4140442 41.3428193,36.7436488 36.6665482,37.0528248 C36.4277696,37.0686283 36.1904089,37.071007 35.9548895,37.060455 C35.913058,39.0351385 36.0757884,41.9453602 37.0383193,44.9320671 Z" id="Combined-Shape" fill="#FFC7C0"></path>
                            <path d="M47.885507,49.341079 C47.885507,49.341079 32.426994,61.1325377 14.2444994,47.075 C14.2444994,47.075 2.65052864,85.1716139 19.4711062,105.806667 C19.4711062,105.806667 40.1562751,96.5118188 51.75,98.326644 C51.75,98.326644 44.9304828,70.4322905 47.885507,49.341079 Z" id="Fill-7" fill="#0EC8D6"></path>
                            <path d="M49.7319349,50.679191 C49.7319349,50.679191 48.5212838,78.6893581 57.6,110.497929 L52.4648475,111.635 C52.4648475,111.635 45.8564509,95.0739581 45.9002164,70.7249624 C45.9148049,64.1917073 46.4886193,57.0114982 47.9328323,49.3166667 L49.7319349,50.679191 Z" id="Fill-8" fill="#0EC8D6"></path>
                            <path d="M45.9651581,71.6771448 C45.9700677,71.6623701 45.9700677,71.6475954 45.9749773,71.6377456 C46.4021113,84.8167644 50.85,96.4887654 50.85,96.4887654 L48.635973,97.1881005 C48.5671897,96.97633 48.4985046,96.7596347 48.4297704,96.5429393 C45.7638651,88.1164441 44.7230328,80.4188333 45.9651581,71.6771448 Z M19.8805266,105.806667 C16.51746,98.9265884 11.6373314,84.1519036 19.6448665,66.3533333 C19.6448665,66.3533333 16.3603533,81.8421279 23.4203382,104.334123 C21.6381585,105.043308 20.3763948,105.589971 19.8805266,105.806667 Z" id="Combined-Shape" fill="#049AC6"></path>
                            <path d="M22.1608671,109.841667 C22.1608671,109.841667 21.0921618,108.429593 19.8,105.869033 C20.2906329,105.661929 21.539075,105.139462 23.3024387,104.461667 C23.7444941,105.821964 24.2254114,107.205796 24.75,108.613163 L22.1608671,109.841667 Z" id="Fill-11" fill="#D0EAEE"></path>
                            <path d="M51.0735457,234.926667 L50.8176789,246.194298 C50.8176789,246.194298 60.2995091,245.956986 65.5447768,249.109198 C65.9088948,249.327093 66.15,249.690251 66.15,250.111514 C66.15,250.687725 65.7120743,251.167093 65.1314536,251.239725 C57.2832341,252.203304 50.8816456,250.440777 48.0623388,248.983303 L46.35,234.926667 L51.0735457,234.926667 Z" id="Fill-13" fill="#FFC7C0"></path>
                            <path d="M64.6690022,251.456504 C65.1683871,251.358206 65.6430501,251.132235 65.9199368,250.704854 C66.3847109,249.987641 66.0880466,249.329376 65.5392176,248.975682 C64.0954511,248.047284 62.5676298,247.38897 61.0595861,246.92229 C61.0595861,246.927203 61.2178071,249.000293 59.6751525,250.076064 C59.6751525,250.076064 49.9297291,249.000293 47.7,246.583333 L47.8779986,248.513915 C47.9175044,248.941295 48.1647247,249.314639 48.5405489,249.516048 C51.6899375,251.215746 57.8902221,252.807419 64.6690022,251.456504 Z" id="Fill-14" fill="#6D8388"></path>
                            <path d="M27.669948,234.926667 L27.4140202,246.194298 C27.4140202,246.194298 36.898113,245.956986 42.1445832,249.109198 C42.5087881,249.327093 42.75,249.690251 42.75,250.111514 C42.75,250.687725 42.3119698,251.167093 41.7312106,251.239725 C33.8811182,252.203304 27.4780022,250.440777 24.6578749,248.983303 L22.95,234.926667 L27.669948,234.926667 Z" id="Fill-15" fill="#FFC7C0"></path>
                            <path d="M41.2689705,251.456504 C41.7683501,251.358206 42.2430575,251.132235 42.5199413,250.704854 C42.9847105,249.987641 42.6880493,249.329376 42.1391766,248.975682 C40.7004193,248.047284 39.1676204,247.38897 37.6645865,246.92229 C37.6596421,246.927203 37.817812,249.000293 36.2752233,250.076064 C36.2752233,250.076064 26.5299033,249.000293 24.3,246.583333 L24.4779967,248.513915 C24.5175515,248.941295 24.7647692,249.314639 25.1404906,249.516048 C28.2900435,251.215746 34.4903118,252.807419 41.2689705,251.456504 Z" id="Fill-16" fill="#6D8388"></path>
                            <path d="M50.6297799,95.495 C46.7637031,96.9222795 42.1587588,98.3250354 36.8987233,99.3697452 C30.4763579,100.644978 24.7090344,101.061881 19.9316614,101.091309 C4.63914253,142.325464 21.1136918,230.037041 23.4333773,239.41 L28.5260077,239.41 C28.5260077,239.41 35.3276079,202.668489 39.0263781,166.113457 C41.8041497,203.806536 46.0643844,239.41 46.0643844,239.41 L51.989115,239.41 C51.989115,239.41 56.7024613,203.433727 59.4309816,158.682775 C62.164427,113.936825 50.6297799,95.495 50.6297799,95.495 Z" id="Fill-17" fill="#FFDF48"></path>
                            <path d="M30.0501236,117.911667 C31.4252106,119.364368 32.6291152,120.300661 34.2,121.294869 C34.2,121.294869 31.7727138,124.793901 28.3324271,126.43 C28.3324271,126.43 25.3815126,124.219577 24.3,122.988883 C26.2182902,121.299695 28.1317845,119.605681 30.0501236,117.911667 Z" id="Fill-18" fill="#FFC7C0"></path>
                            <path d="M14.2341756,47.075 C14.2341756,47.075 -23.9416503,92.9810345 24.7459877,124.188333 L31.5,118.132748 C31.5,118.132748 8.04872084,99.6186998 20.1625212,66.3570019 C20.1625212,66.3570019 22.8275573,57.0437265 14.2341756,47.075 Z" id="Fill-19" fill="#58C8DE"></path>
                            <path d="M14.2341756,47.075 C14.2341756,47.075 -23.9416503,92.9810345 24.7459877,124.188333 C25.8387019,123.611145 27.2280312,122.740471 28.637237,121.449135 C29.9227832,120.270301 30.852332,119.091467 31.5,118.132748 C28.2762952,115.168544 21.3541236,108.110216 18.2490352,96.718084 C16.0586623,88.6912537 15.7372263,78.5073045 20.1625212,66.3570019 C20.1625212,66.3570019 22.8275573,57.0437265 14.2341756,47.075 Z" id="Fill-20" fill="#0EC8D6"></path>
                            <path d="M23.1946555,17.8180185 C25.1066798,21.4966334 30.3747051,22.6236361 34.9605758,20.3354791 C39.5464466,18.047322 41.7173909,13.2124316 39.8053168,9.5338167 C37.8933423,5.85520179 32.625317,4.72332028 28.0393964,7.0114773 C23.4535754,9.29963432 21.2826311,14.1394035 23.1946555,17.8180185 Z" id="Fill-21" fill="#8284D3"></path>
                            <g id="Fill-26" opacity="0.0700000003" transform="translate(39.150000, 136.293333)" fill="#343839">
                                <path d="M0,29.9463884 C0,29.9463884 1.57394275,16.1937024 2.02430396,0 C2.02430396,0 4.80535402,24.8202541 1.62501464,51.11 L0,29.9463884 Z" id="Fill-22"></path>
                            </g>
                            <g id="Combined-Shape-2" opacity="0.119999997" transform="translate(24.750000, 112.980000)" fill="#343839">
                                <path d="M11.7701581,4.13086627 C11.8538148,3.87033625 12.1293898,3.72778209 12.3902019,3.81134832 C12.6510139,3.89491455 12.7936732,4.17019156 12.7100657,4.43072158 C12.7002238,4.46021555 11.9866321,6.69684121 10.121629,9.22349086 C8.26149758,11.7452249 5.23017238,14.5668142 0.609320627,15.6777535 C0.343636783,15.7416571 0.0779037297,15.5794403 0.0139309575,15.3139946 C-0.0500418146,15.0534646 0.112301397,14.7880189 0.37808366,14.7241153 C4.58060269,13.7114892 7.37567153,11.2045022 9.16198816,8.86464763 C10.9433838,6.52970874 11.6914224,4.37173365 11.7652371,4.15052891 L11.7701581,4.13086627 Z M27.6548927,0.567012189 C27.6155248,0.301566505 27.7976012,0.0459521435 28.0633342,0.00662685706 C28.3339882,-0.0376140902 28.5849584,0.14426536 28.6292472,0.414626704 L28.6292472,0.424458025 L28.6390892,0.463783312 C28.6440101,0.498192937 28.6538521,0.552265206 28.6686151,0.626000118 C28.6981409,0.768554282 28.7522718,0.984843357 28.8260865,1.24537338 C28.973716,1.77626475 29.2197651,2.51361387 29.6036017,3.33452922 C30.381117,4.97635993 31.7196242,6.93770859 33.9586712,8.26493701 C34.1948784,8.40257551 34.2686931,8.70734648 34.1309056,8.93838254 C33.9931181,9.17433426 33.6880172,9.24806917 33.456731,9.11043067 C30.9913188,7.65047941 29.5445499,5.51216696 28.7178249,3.75236039 C27.8861788,1.99255382 27.6598136,0.601421814 27.6548927,0.567012189 Z" id="Combined-Shape"></path>
                            </g>
                            <path d="M25.9513047,31.5394448 C26.462753,31.1630552 27.4487177,31.4907137 28.1517088,32.2704109 C28.8546998,33.0505722 29.0101838,33.9894576 28.4987355,34.3658471 C27.9872358,34.7417726 27.0012711,34.4141141 26.29828,33.6344169 C25.595289,32.8542556 25.439805,31.9158343 25.9513047,31.5394448 Z" id="Fill-25" fill="#049AC6"></path>
                        </g>
                    </g>
                </g>
            </g>
        </g>
    </g>
</svg>