<?xml version="1.0" encoding="UTF-8"?>
<svg width="279px" height="214px" viewBox="0 0 279 214" version="1.1" xmlns="http://www.w3.org/2000/svg" xmlns:xlink="http://www.w3.org/1999/xlink">
    <!-- Generator: Sketch 53 (72520) - https://sketchapp.com -->
    <title>Illustration</title>
    <desc>Created with Sketch.</desc>
    <g id="UI-Starter-Kit" stroke="none" stroke-width="1" fill="none" fill-rule="evenodd">
        <g id="Advanced-Search" transform="translate(-318.000000, -655.000000)">
            <g id="Illustration" transform="translate(61.000000, 575.000000)">
                <g transform="translate(257.000000, 80.000000)">
                    <path d="M162.5,213.194668 C226.234758,220.148559 279,181.549973 279,117.480962 C279,53.4119505 233.401194,-10.5826133 163.096459,1.47375492 C92.7917236,13.5301232 37.0635422,50.1232795 47.192918,117.480962 C57.3222938,184.838644 98.7652421,206.240776 162.5,213.194668 Z" id="Oval" fill="#F2F8F9"></path>
                    <path d="M42.7578773,172.917252 L42.7578773,169.811148 C41.5734495,168.188017 38.8447713,163.290025 43.2248356,157 C43.2248356,157 48.7248273,164.077946 43.668377,169.90839 L43.668377,176.202624 C44.5736795,173.947499 47.143528,169.901758 54,169.475769 C54,169.475769 51.6370873,178.224 43.668377,177.740529 L43.668377,178.561513 C43.6539137,178.848865 43.5326974,178.89978 43.4280106,178.954809 C43.1552739,179.097373 42.7737181,178.885281 42.7578773,178.561513 L42.7578773,176.641199 C40.6305447,176.255876 35.407781,174.573086 34,167.286944 C34,167.286944 40.3483797,168.130965 42.7578773,172.917252 Z" id="Combined-Shape" fill="#D9F58A"></path>
                    <g id="Img" transform="translate(0.000000, 138.000000)">
                        <path d="M25.9677714,14.724789 L27.1066674,11.8192181 C26.6218231,9.8726479 25.9302802,4.30522121 32.2312006,5.27577981e-13 C32.2312006,5.27577981e-13 34.6512686,8.60756986 27.9020255,12.2388517 L25.5934321,18.1285364 C27.2463409,16.3449054 31.0735699,13.4872039 37.4824574,15.5625015 C37.4824574,15.5625015 32.1188601,22.8960736 25.0290813,19.5683085 L24.7279585,20.336533 C24.6091488,20.6002272 24.4802132,20.6041609 24.3641036,20.6177254 C24.0630289,20.6528575 23.7930067,20.3167288 23.8969652,20.0078648 L24.6013961,18.2107087 C22.8022072,17.0821537 18.6570077,13.6228328 20.0457735,6.2975979 C20.0457735,6.2975979 25.5249477,9.37749217 25.9677714,14.724789 Z" id="Combined-Shape" fill="#A8CC43"></path>
                        <polygon id="Shape" fill="#DDEBEF" points="-2.7000624e-13 22.9932028 3.77618472 14.27289 17.1328792 9.35104032 29.7024426 19.7764811 29.2398753 28.3413629 2.54233118 28.3413629"></polygon>
                    </g>
                    <g id="Dog" transform="translate(47.000000, 76.000000)">
                        <path d="M29.3331927,33.6691937 C40.6956797,24.3964853 51.755659,31.7333703 56.1705285,46.4979093 C60.2721583,71.1276789 50.0653716,86.7899501 44.6041338,91.4043017 C38.4520245,96.6024282 32.4280283,94.4018337 32.4280283,94.4018337 C31.78478,90.4592673 36.9844258,89.3945981 36.9844258,89.3945981 C40.9572718,86.8122218 42.3437098,82.95161 42.6173754,79.3466857 C42.9943363,74.3882325 39.4621724,67.7984933 38.6492247,66.7708987 C22.3641112,46.1838175 29.3331927,33.6691937 29.3331927,33.6691937 Z M97.4692115,20.4710096 C100.310504,10.3060865 109.643976,1.37182759 117.395821,1.90675271 C125.146996,2.44167784 130.40768,10.3087779 130.40768,10.3087779 C142.787022,32.5455145 125.93848,64.6493655 125.93848,64.6493655 C119.432215,90.578633 103.452292,92.4310888 103.452292,92.4310888 C98.8958945,92.2323254 100.88936,89.4764854 100.88936,89.4764854 C114.779229,81.8020929 113.405536,66.6711806 113.405536,66.6711806 C87.2825473,42.5134909 97.4692115,20.4710096 97.4692115,20.4710096 Z" id="Combined-Shape" fill="#FFDF48"></path>
                        <path d="M13.78322,48.4980583 C13.78322,48.4980583 5.07555723,51.9400155 5.11768405e-12,60.8194362 C5.11768405e-12,60.8194362 0.812276967,67.4379739 6.78462553,71.1375026 C6.78462553,71.1375026 9.79830052,73.0042231 10.593138,69.5236436 C10.593138,69.5236436 11.1122977,64.4687021 14.0843862,62.9374032 C14.0843862,62.9374032 18.0914404,53.6721636 13.78322,48.4980583" id="Shape" fill="#FF9E14"></path>
                        <path d="M102.109588,41.8719806 C96.2828421,42.2400813 85.5189312,43.5941301 71.9877344,48.3470082 C75.5387644,69.1268193 66.3310334,86.0219457 66.3310334,86.0219457 C57.3839133,101.19868 48.3509374,96.3999641 48.3509374,96.3999641 C46.1428318,93.8341402 52.3284786,91.1122124 52.3284786,91.1122124 C62.8022233,81.537591 53.7108921,69.7884147 53.7108921,69.7884147 C50.7145667,66.2093191 48.6000796,62.9030499 47.1485986,59.8857071 C41.3891238,63.2430383 35.4263902,67.2195441 29.3627056,71.92899 C24.1677551,80.4020694 12.2747056,91.1216998 4.27803674,86.279719 L13.7309016,67.1368683 L8.89547244,55.9259815 C8.89547244,55.9259815 38.8564861,-5.48328836 120.927985,0.396850849 C120.927985,0.396850849 120.937601,0.40907613 120.956077,0.433147234 C122.734988,1.1554832 124.357295,2.01859123 125.836714,2.98950831 C129.025658,1.14998534 136.828236,-2.11943434 145.996556,2.96247287 C145.996556,2.96247287 149.986841,5.17416958 154.675376,13.3380017 C155.972605,15.5887244 158.029121,17.2991391 160.474672,18.1610751 C164.79027,19.6662669 171.594348,20.7273699 177.105892,15.5920887 C177.105892,15.5920887 179.789558,29.4483316 166.882336,31.9116787 C153.786634,34.4106874 146.680049,27.3759173 142.306766,17.1847526 C142.306766,17.1847526 138.613115,5.70942048 130.982227,7.32458158 C140.312115,17.2532922 141.0746,31.5954336 141.0746,31.5954336 C144.161387,68.3359753 128.423604,91.7120014 122.524367,93.1381993 C115.877916,94.7451278 116.285061,90.5780274 116.285061,90.5780274 C131.001293,79.9483587 122.537112,65.3628009 122.537112,65.3628009 C111.7666,58.6441913 105.593583,49.4318576 102.109588,41.8719806 Z" id="Combined-Shape" fill="#FFEB8F"></path>
                        <path d="M32.0477136,49.2738007 C32.0477136,49.2738007 40.7372661,49.2925735 40.7231804,62.329338 C40.7231804,62.329338 39.8760245,72.7620602 31.0778106,75.0409085 C31.0778106,75.0409085 24.05574,76.8280967 25.5910843,71.3274515 C25.5910843,71.3274515 29.8697918,63.7279486 22.9409553,55.0649203 C22.9409553,55.0649203 25.8996288,48.0319669 32.0477136,49.2738007 Z" id="Shape" fill="#FF9E14"></path>
                        <path d="M58.9937108,10.3693355 C58.9937108,10.3693355 56.4468771,18.1307963 63.9344475,18.4086882 C63.9344475,18.4086882 69.7102666,13.7753619 75.5652341,17.6698859 C75.5652341,17.6698859 81.6777692,22.8986949 87.2127894,18.1011904 C94.112113,12.1214676 90.6188526,1.7062399 90.2982346,1.35971608 C90.2982346,1.35971608 78.3515252,2.43764067 58.9937108,10.3693355 Z" id="Shape" fill="#FF9E14"></path>
                        <path d="M6.40431088,81.9791229 L4.28004899,86.2252845 C4.28004899,86.2252845 7.09719454,88.5887115 9.17316251,83.1473455 L6.40431088,81.9791229 Z" id="Shape" fill="#6D8388"></path>
                        <path d="M133.700386,36.4117783 C135.317562,34.8776535 134.522054,31.5860136 133.661483,29.9025134 C132.590967,27.8065489 130.705492,25.430001 127.636816,25.3162874 C126.13568,25.2611127 124.350817,25.7469189 122.23997,27.0731295 C122.23997,27.0731295 116.365551,32.5387859 120.679137,38.4226258 C121.272079,39.2313384 124.259595,40.8575108 125.631276,41.4863001 C127.734074,42.4500401 130.250724,44.925835 129.51223,51.2846481 C129.51223,51.2846481 126.917102,58.3983449 131.983269,61.0933582 C131.983269,61.0933582 139.544622,62.3137949 136.899859,53.06282 C135.891723,49.5383699 142.708545,44.8461009 135.580496,44.0651102 C133.331474,43.8187083 130.723602,39.2363849 133.700386,36.4117783 Z" id="Shape" fill="#FF9E14"></path>
                    </g>
                    <g id="Trash" transform="translate(196.000000, 102.000000)">
                        <path d="M43.712926,75.7203062 L11.0701693,75.7203062 C6.48150228,75.3500007 6.11464774,70.5362305 6.11464774,70.5362305 L4.46214383,17.5844906 L50.3209515,17.5844906 L48.669111,70.5362305 C48.669111,70.5362305 48.3022564,75.3499338 43.712926,75.7203062 Z" id="Shape" fill="#7C99BE"></path>
                        <g transform="translate(28.995304, 10.884764) rotate(5.000000) translate(-28.995304, -10.884764) translate(1.495304, 2.384764)" id="Shape">
                            <path d="M54.3316217,12.7746684 C54.3316217,12.136303 53.8174947,11.6177148 53.1846208,11.6177148 L1.14766429,11.6177148 C0.514127068,11.6177148 -2.91322522e-12,12.136303 -2.91322522e-12,12.7746684 L-2.91322522e-12,15.0892448 C-2.91322522e-12,15.7276102 0.514127068,16.2461984 1.14766429,16.2461984 L53.1846208,16.2461984 C53.8174947,16.2461984 54.3316217,15.7276102 54.3316217,15.0892448 L54.3316217,12.7746684 Z" fill="#5C7594"></path>
                            <path d="M52.7567344,12.04463 L1.5748873,12.04463 C1.5748873,12.04463 7.01800032,8.1194764 21.4619857,6.85757213 C21.4254992,6.58424048 21.4069243,6.30535894 21.4069243,6.02231499 C21.4069243,2.69793607 23.9875105,4.99156272e-13 27.1658109,4.99156272e-13 C30.3447746,4.99156272e-13 32.9246974,2.69793607 32.9246974,6.02231499 C32.9246974,6.30535894 32.9061225,6.58424048 32.8696361,6.85757213 C47.3030072,8.11878267 52.7481104,12.0383864 52.7567344,12.04463 Z M30.1563719,6.65916387 C30.1968387,6.45381826 30.2174038,6.24014783 30.2174038,6.02231499 C30.2174038,4.2609214 28.8501575,2.83113322 27.1658109,2.83113322 C25.4821276,2.83113322 24.1142179,4.2609214 24.1142179,6.02231499 C24.1142179,6.24014783 24.1354464,6.45381826 24.1752498,6.65916387 C25.1365016,6.60297133 26.1335764,6.55787854 27.1658109,6.52596672 L27.2759336,6.5294354 C28.269028,6.56065348 29.2296164,6.60505253 30.1563719,6.65916387 Z" fill="#95AAC9"></path>
                        </g>
                        <path d="M12.9296508,66.5093092 L10.7265334,66.5093092 L9.56692807,23.3483814 L11.7707089,23.3483814 L12.9296508,66.5093092 Z M19.0507481,66.5093092 L16.8476307,66.5093092 L16.3009976,23.3483814 L18.5034516,23.3483814 L19.0507481,66.5093092 Z M23.1849932,66.5093092 L25.3876462,66.5093092 L25.3876462,23.3483814 L23.1849932,23.3483814 L23.1849932,66.5093092 Z M45.4861669,23.3483814 L44.327225,66.5093092 L42.1241076,66.5093092 L43.2830495,23.3483814 L45.4861669,23.3483814 Z M38.7527608,23.3483814 L38.2061276,66.5093092 L36.0030102,66.5093092 L36.5503068,23.3483814 L38.7527608,23.3483814 Z M29.6663112,66.5093092 L31.8689642,66.5093092 L31.8689642,23.3483814 L29.6663112,23.3483814 L29.6663112,66.5093092 Z" id="Shape" fill="#5C7594"></path>
                        <path d="M4.46214383,18.2536367 C4.09576378,18.2536367 3.79875407,17.9540498 3.79875407,17.5844906 C3.79875407,17.2149314 4.09576378,16.9153445 4.46214383,16.9153445 L50.3156444,16.9153445 C50.6820244,16.9153445 50.9790341,17.2149314 50.9790341,17.5844906 C50.9790341,17.9540498 50.6820244,18.2536367 50.3156444,18.2536367 L4.46214383,18.2536367 Z" id="Stroke-34" fill="#5C7594"></path>
                    </g>
                </g>
            </g>
        </g>
    </g>
</svg>