<?xml version="1.0" encoding="UTF-8"?>
<svg width="173px" height="262px" viewBox="0 0 173 262" version="1.1" xmlns="http://www.w3.org/2000/svg" xmlns:xlink="http://www.w3.org/1999/xlink">
    <!-- Generator: Sketch 53.2 (72643) - https://sketchapp.com -->
    <title>9</title>
    <desc>Created with Sketch.</desc>
    <g id="Landing-Page" stroke="none" stroke-width="1" fill="none" fill-rule="evenodd">
        <g id="Final" transform="translate(-1098.000000, -2807.000000)">
            <g id="#3" transform="translate(0.000000, 2562.000000)">
                <g id="Group-5" transform="translate(873.000000, 78.000000)">
                    <g id="5.-Illustrations-/1.-Characters/Holding-play" transform="translate(212.000000, 134.000000)">
                        <g id="Group" transform="translate(13.230000, 33.433333)">
                            <path d="M95.9712171,236.131035 L94.7615401,246.370474 C94.7615401,246.370474 102.757886,252.717291 105.712014,259.365094 C106.041296,260.106475 105.702606,261.101552 105.068305,261.074458 C102.058225,260.947364 96.242565,256.071488 92.0104285,248.818265 C91.7004581,248.287721 91.5796389,247.666537 91.6489614,247.056683 L92.9056786,236 L95.9712171,236.131035 Z" id="Fill-1" fill="#405C80"></path>
                            <path d="M81.7845276,236.525534 L82.6709251,246.96546 C82.6709251,246.96546 74.3973913,253.152356 71.2001863,259.809465 C70.8439613,260.551598 71.1531469,261.573504 71.7935679,261.566632 C74.7428365,261.53571 80.4992756,257.054444 84.9542931,250.189714 C85.5501247,249.271373 85.8215809,248.176825 85.7338721,247.084732 L84.8812841,236.491667 L81.7845276,236.525534 Z" id="Fill-2" fill="#405C80"></path>
                            <path d="M92.4478543,150.647921 L86.573802,241.100944 C86.1906114,241.348452 85.2797968,241.862658 84.0113376,241.898087 C82.5787943,241.937944 81.546636,241.344515 81.1698319,241.100944 C69.8460583,190.313142 66.5707612,154.330501 67.8971902,130.351258 C68.2302713,124.32594 69.1916867,118.345399 70.9759793,112.58235 C71.6313335,110.465001 72.3200941,108.593683 72.9282863,107.675 C72.9282863,107.675 79.7731513,110.424159 95.06,110.424159 L94.7012755,115.948066 C99.2259213,115.042074 106.459633,113.13207 110.625157,109.641667 C110.625157,109.641667 123.240161,154.576668 97.199775,241.590205 C97.0460058,242.105256 95.6037401,242.430733 94.0685207,242.387894 C92.7221754,242.350471 91.7318229,241.86004 91.2670544,241.590205 C91.6764462,235.25941 92.2173576,226.276054 92.5629674,215.485587 C93.0787591,199.394831 93.3592834,176.847299 92.4478543,150.647921 L92.4478543,150.647921 Z" id="Path" fill="#0EC8D6"></path>
                            <path d="M78.4573597,0.50866618 C66.4318225,2.5101484 56.8986068,10.0585534 47.8175505,30.0221566 C42.0672089,42.6639004 24.2638612,39.8104093 18.1490648,41.573526 C9.89315776,43.9532411 2.82283251,48.7102088 0.822500447,56.2177371 C-1.91998522,66.5117778 2.19889372,72.986553 13.1325381,76.3453396 C27.8480756,80.8668968 8.87827619,93.0427444 7.736841,107.18954 C6.75580517,119.349628 13.2713547,126.702022 16.3209045,129.270361 C31.52696,142.075119 62.6749458,128.930049 61.203392,102.828042 C60.451428,89.4840066 61.7522816,80.8378398 67.2102744,76.5118015 C71.6882125,72.962421 77.314453,71.267268 83.0186858,71.3953156 C95.6279394,71.6789902 102.82629,65.8025911 108.861622,50.978621 C121.782355,19.2400576 104.053075,-3.7513784 78.4573597,0.50866618 Z" id="Fill-8" fill="#FF6554"></path>
                            <path d="M80.85,43.3625083 C80.85,43.3625083 90.410573,40.9334084 90.6416502,29.0083333 L96.2472121,29.0083333 C96.2472121,29.0083333 94.4068479,41.0450968 105.35,44.0808567 L96.5380003,55.0666667 L82.8835757,53.1527111 L80.85,43.3625083 Z" id="Fill-9" fill="#F4B9B2"></path>
                            <path d="M153.37,67.0976712 C153.37,67.0976712 156.703176,62.5280587 158.368779,55.9370998 C159.062205,53.1918592 159.201088,50.3617757 159.947211,50.2387286 C159.947211,50.2387286 161.356226,49.4875458 160.35844,56.0432775 C160.35844,56.0432775 162.634239,53.0643467 164.357956,45.4914916 C164.357956,45.4914916 165.17943,43.5882307 165.483789,45.8462444 C165.788148,48.1042581 165.339489,49.6254776 165.339489,49.6254776 C165.339489,49.6254776 165.715752,48.2739441 165.893049,47.0236266 C165.986622,46.3657215 166.891327,46.2272935 167.147422,46.8400483 C167.176972,46.911495 167.204551,46.9918725 167.228191,47.0826694 C167.187314,48.3781372 167.041044,49.938057 166.669706,51.6721282 C166.311173,53.3466604 165.828533,54.7835331 165.354264,55.953473 C165.630551,55.5188389 165.912748,55.0608853 166.172291,54.5667122 C166.670199,53.6195472 167.344418,52.1658051 168.051635,50.1380085 C168.051635,50.1380085 168.520978,49.2037436 168.911523,50.2670096 C169.044988,50.6297008 169.079462,51.0216654 169.025781,51.4046992 C168.542155,54.8688723 165.747764,63.6473905 160.209216,70.8 L153.37,67.0976712 Z" id="Fill-10" fill="#FFC7C0"></path>
                            <path d="M163.190894,56.1959615 C163.746889,54.8451529 164.244332,53.456342 164.689619,52.0576603 C165.137367,50.6579916 165.523119,49.2385814 165.834082,47.8028845 C165.849827,47.7273735 165.923632,47.6785134 165.999405,47.6948001 C166.073209,47.7100997 166.121428,47.7836366 166.107651,47.8581606 C165.829162,49.3121183 165.475392,50.7507764 165.05815,52.1706801 C164.642876,53.592558 164.179384,54.9942008 163.645531,56.3835053 C163.59682,56.5108376 163.454131,56.5740103 163.327679,56.5251502 C163.200735,56.4757966 163.137755,56.3331646 163.186466,56.2058322 L163.190894,56.1959615 Z" id="Fill-11" fill="#F4B9B2"></path>
                            <path d="M91.6104048,10.8642568 C86.7763962,11.327804 84.1772301,17.6885935 84.6320231,23.0845579 C84.0931179,22.5774 83.3141016,22.1153228 82.2025486,22.003111 C80.9550467,21.8771791 80.1051219,23.0776978 80.4293452,24.5114603 C80.6870612,25.6517081 82.5923013,28.2560989 86.020364,28.4805224 C87.7226588,32.2971921 90.8103605,34.9579337 94.8736663,34.3228838 C106.24838,32.545626 104.416004,9.63678755 91.6104048,10.8642568 Z" id="Fill-16" fill="#FFC7C0"></path>
                            <path d="M117.079138,89.7406674 C118.289021,100.068246 118.924112,111.777253 118.388204,124.463583 C97.8410853,132.714719 73.7179839,128.588413 63.7351349,125.488887 C63.1825408,90.0091505 69.1824129,56.5637858 79.3206332,43.5359355 L84.222646,42.2833333 C84.222646,42.2833333 92.3688892,52.8492741 102.262815,43.0095081 L106.442693,44.2512865 C106.442693,44.2512865 106.447583,44.2630455 106.457167,44.2864305 C106.466114,44.2742251 106.475081,44.2620816 106.48407,44.25 C106.48407,44.25 117.80732,69.2731717 132.459816,75.6876577 C142.721694,80.1801543 152.246672,60.5596626 152.32779,60.320089 L168.07,70.2913597 C168.07,70.2913597 162.105405,98.8575703 135.065844,97.2875774 C127.592424,96.8537772 121.667597,93.9727693 117.079138,89.7406713 L117.079138,89.7406674 Z" id="Path" fill="#FFEB8F"></path>
                            <g id="Button" transform="translate(86.319012, 45.804281)">
                                <path d="M11.051204,23.2176309 L59.3960296,1.61991512 C68.7905128,-2.57700509 79.796989,1.662356 83.9796823,11.0887931 C88.1623757,20.5152303 83.9373853,31.5591435 74.5429022,35.7560637 L26.1980766,57.3537795 C16.8035935,61.5506997 5.79711725,57.3113386 1.61442389,47.8849015 C-2.56826948,38.4584643 1.65672089,27.4145511 11.051204,23.2176309 L11.051204,23.2176309 Z" id="Rectangle" fill="#8284D3"></path>
                                <path d="M41.7991567,22.6874541 L52.2281233,23.1562455 C53.3095168,23.2048551 54.1468872,24.1238854 54.0984423,25.2089571 C54.079463,25.6340589 53.9235847,26.0415167 53.6542048,26.3701717 L47.023063,34.4604483 C46.3354711,35.2993399 45.1003169,35.4200966 44.264269,34.7301659 C44.0292591,34.536229 43.8424773,34.2900531 43.7187153,34.0111336 L39.9208905,25.4520656 C39.480607,24.4598091 39.9253428,23.2972919 40.9142357,22.8555108 C41.1922097,22.7313279 41.4951812,22.6737901 41.7991567,22.6874541 Z" id="Rectangle" fill="#FFFFFF"></path>
                            </g>
                            <path d="M106.33,44.1577158 C105.334834,47.2002206 101.315288,51.8612382 93.1,52.1106238 C87.4464525,52.2822011 82.1206897,48.7858145 79.87,43.435495 L84.3512005,42.2833333 C84.3512005,42.2833333 92.5571374,52.9949453 102.523563,43.0195197 L106.33,44.1577158 Z M79.5109442,43.2666667 C79.5109442,43.2666667 67.4590702,65.9630418 70.1002193,83.3334978 C71.8096037,94.5712705 83.5265939,101.522986 94.105472,97.2727526 C94.3379207,97.1795134 94.5718468,97.0818576 94.8077429,96.9792946 L98.98,113.050782 C98.98,113.050782 74.6024354,124.705677 60.9771004,105.321746 C42.1924878,78.5979298 68.430233,44.0027653 79.5109442,43.2666667 Z" id="Shape" fill="#FFDF48"></path>
                            <path d="M95.06,103.35461 C95.06,103.35461 100.520544,102.281529 106.110104,98.6248531 C108.438236,97.1016449 110.418754,95.1449081 111.043387,95.5559791 C111.043387,95.5559791 112.567724,95.9572858 107.487899,100.03675 C107.487899,100.03675 111.122257,99.4054973 117.40607,95.0770472 C117.40607,95.0770472 119.267796,94.2500233 117.989806,96.0895902 C116.71133,97.929157 115.374432,98.7298178 115.374432,98.7298178 C115.374432,98.7298178 116.5458,98.0033646 117.505388,97.2168619 C118.010254,96.8028617 118.760982,97.3101096 118.540437,97.9252514 C118.514147,97.9970179 118.480554,98.0736665 118.437711,98.1556854 C117.547744,99.0666811 116.4051,100.098264 114.983002,101.104949 C113.610076,102.07697 112.304823,102.794636 111.18214,103.323365 C111.672401,103.19399 112.182136,103.051433 112.699174,102.867867 C113.690407,102.515869 115.146584,101.915373 117.007824,100.920894 C117.007824,100.920894 117.969845,100.559132 117.548231,101.591692 C117.404122,101.943689 117.168972,102.250772 116.8754,102.492435 C114.223024,104.677165 106.358886,109.160377 97.5780041,110.625 L95.06,103.35461 Z" id="Fill-18" fill="#FFC7C0"></path>
                            <path d="M109.414483,101.790662 C110.7125,101.169911 111.993591,100.480078 113.243247,99.7479988 C114.495805,99.016914 115.716444,98.2281774 116.893558,97.3763221 C116.954977,97.3310952 117.040577,97.3455082 117.084585,97.409124 C117.128111,97.4712488 117.114086,97.5582235 117.055085,97.6039474 C115.889094,98.4920836 114.678611,99.3166041 113.435242,100.08397 C112.191389,100.853323 110.926741,101.575959 109.619051,102.240943 C109.499599,102.301577 109.354032,102.25138 109.295031,102.128621 C109.23603,102.005366 109.284875,101.856266 109.404327,101.795632 L109.40868,101.793147 L109.414483,101.790662 Z" id="Fill-19" fill="#F4B9B2"></path>
                        </g>
                    </g>
                </g>
            </g>
        </g>
    </g>
</svg>