<svg xmlns="http://www.w3.org/2000/svg" viewBox="0 0 201.54 201.54"><defs><linearGradient id="a" x1="20.03" y1="20.03" x2="181.55" y2="181.55" gradientUnits="userSpaceOnUse"><stop offset=".33" stop-color="#ae3eff"/><stop offset=".84" stop-color="#40c1fd"/></linearGradient></defs><rect width="201.54" height="201.54" rx="65.54" ry="65.54" fill="url(#a)"/><g fill="#fff"><path d="M146.89 73.77a32.84 32.84 0 1 0 32.85 32.84 32.84 32.84 0 0 0-32.85-32.84zm0 49.59a16.75 16.75 0 1 1 16.75-16.75 16.75 16.75 0 0 1-16.75 16.75z" opacity=".4"/><path d="M146.89 73.77a32.85 32.85 0 0 0-31.15 22.38c1.39.14 2.79.22 4.21.22a42 42 0 0 0 18.9-4.48 16.76 16.76 0 1 1-2.22 27.94v.12a42.3 42.3 0 0 0-22.5-10.52 32.84 32.84 0 1 0 32.71-35.68zM83.09 117.3a26.58 26.58 0 1 1 4.11-36.57 42.2 42.2 0 0 0 21.41 14.08 42.61 42.61 0 1 0-1.74 14.25 42.24 42.24 0 0 0-23.78 8.24z"/></g></svg>