<svg xmlns="http://www.w3.org/2000/svg" viewBox="0 0 202.28 202.28"><g fill="#fff"><path d="M147.39 74.27a32.84 32.84 0 1 0 32.85 32.84 32.84 32.84 0 0 0-32.85-32.84zm0 49.59a16.75 16.75 0 1 1 16.75-16.75 16.75 16.75 0 0 1-16.75 16.75z" opacity=".4"/><path d="M147.39 74.27a32.85 32.85 0 0 0-31.15 22.38c1.39.14 2.79.22 4.21.22a42 42 0 0 0 18.9-4.48 16.76 16.76 0 1 1-2.22 27.94v.12a42.3 42.3 0 0 0-22.5-10.52 32.84 32.84 0 1 0 32.71-35.68zM83.59 117.8a26.58 26.58 0 1 1 4.11-36.57 42.2 42.2 0 0 0 21.41 14.08 42.61 42.61 0 1 0-1.74 14.25 42.24 42.24 0 0 0-23.78 8.24z"/></g><rect x=".5" y=".5" width="201.28" height="201.28" rx="65.98" ry="65.98" fill="none" stroke="#fff" stroke-miterlimit="10"/></svg>