<?xml version="1.0" encoding="UTF-8"?>
<svg width="144px" height="128px" viewBox="0 0 144 128" version="1.1" xmlns="http://www.w3.org/2000/svg" xmlns:xlink="http://www.w3.org/1999/xlink">
    <!-- Generator: Sketch 53 (72520) - https://sketchapp.com -->
    <title>Logo</title>
    <desc>Created with Sketch.</desc>
    <defs>
        <linearGradient x1="50%" y1="0%" x2="50%" y2="98.7832559%" id="linearGradient-1">
            <stop stop-color="#31C0EB" offset="0%"></stop>
            <stop stop-color="#16D3AF" offset="100%"></stop>
        </linearGradient>
        <path d="M2.31487698,74.261116 L18.964269,39.4086983 C24.4812612,27.8598971 38.1361968,23.1440826 49.5714314,28.8383298 L83.5784578,45.7723428 C95.0934972,51.5063293 100.016034,65.6281943 94.5732511,77.3144112 C94.5410214,77.3836117 94.5084573,77.4526452 94.4755602,77.5215093 L77.8261682,112.373927 C72.309176,123.922728 58.6542404,128.638543 47.2190058,122.944296 L13.2119794,106.010282 C1.69694,100.276296 -3.22559663,86.154431 2.21718614,74.4682141 C2.24941584,74.3990136 2.28197985,74.3299801 2.31487698,74.261116 Z" id="path-2"></path>
        <filter x="-3.1%" y="-3.0%" width="106.2%" height="106.1%" filterUnits="objectBoundingBox" id="filter-3">
            <feOffset dx="0" dy="0" in="SourceAlpha" result="shadowOffsetOuter1"></feOffset>
            <feGaussianBlur stdDeviation="1" in="shadowOffsetOuter1" result="shadowBlurOuter1"></feGaussianBlur>
            <feColorMatrix values="0 0 0 0 0.233660754   0 0 0 0 0.250401661   0 0 0 0 0.332795516  0 0 0 0.115848995 0" type="matrix" in="shadowBlurOuter1"></feColorMatrix>
        </filter>
        <linearGradient x1="50%" y1="0%" x2="50%" y2="100%" id="linearGradient-4">
            <stop stop-color="#AAEB31" offset="0%"></stop>
            <stop stop-color="#71D316" offset="100%"></stop>
        </linearGradient>
        <path d="M18.3688679,30.9091862 L52.2874833,12.523157 C63.526967,6.43064786 77.5341535,10.9262142 83.6102718,22.5761162 L101.489952,56.8572992 C107.580114,68.5341263 103.400762,82.9813396 92.1551081,89.1260531 C92.1329672,89.1381511 92.1108067,89.1502115 92.0886268,89.1622344 L58.1700114,107.548264 C46.9305277,113.640773 32.9233413,109.145206 26.8472229,97.4953044 L8.96754239,63.2141214 C2.87738095,51.5372943 7.05673308,37.090081 18.3023866,30.9453675 C18.3245276,30.9332695 18.346688,30.9212091 18.3688679,30.9091862 L18.3688679,30.9091862 Z" id="path-5"></path>
        <filter x="-3.1%" y="-3.0%" width="106.1%" height="106.0%" filterUnits="objectBoundingBox" id="filter-6">
            <feOffset dx="0" dy="0" in="SourceAlpha" result="shadowOffsetOuter1"></feOffset>
            <feGaussianBlur stdDeviation="1" in="shadowOffsetOuter1" result="shadowBlurOuter1"></feGaussianBlur>
            <feColorMatrix values="0 0 0 0 0.233660754   0 0 0 0 0.250401661   0 0 0 0 0.332795516  0 0 0 0.115848995 0" type="matrix" in="shadowBlurOuter1"></feColorMatrix>
        </filter>
        <linearGradient x1="50%" y1="0%" x2="50%" y2="99.6225718%" id="linearGradient-7">
            <stop stop-color="#FFDC66" offset="0%"></stop>
            <stop stop-color="#FFB32B" offset="100%"></stop>
        </linearGradient>
        <path d="M52.1623408,0.180127558 L90.2340623,5.06945417 C102.875351,6.69290026 111.879673,18.8550379 110.345778,32.234349 C110.343128,32.2574687 110.340446,32.2805843 110.337733,32.3036959 L105.728029,71.5710849 C104.161126,84.9186242 92.6853393,94.4077748 80.0696356,92.7876144 L41.9979142,87.8982878 C29.3566258,86.2748417 20.352304,74.112704 21.8861984,60.733393 C21.888849,60.7102733 21.8915308,60.6871576 21.8942439,60.6640461 L26.5039477,21.3966571 C28.070851,8.04911778 39.5466372,-1.44003284 52.1623408,0.180127558 Z" id="path-8"></path>
        <filter x="-3.4%" y="-3.2%" width="106.8%" height="106.5%" filterUnits="objectBoundingBox" id="filter-9">
            <feOffset dx="0" dy="0" in="SourceAlpha" result="shadowOffsetOuter1"></feOffset>
            <feGaussianBlur stdDeviation="1" in="shadowOffsetOuter1" result="shadowBlurOuter1"></feGaussianBlur>
            <feColorMatrix values="0 0 0 0 0.233660754   0 0 0 0 0.250401661   0 0 0 0 0.332795516  0 0 0 0.115848995 0" type="matrix" in="shadowBlurOuter1"></feColorMatrix>
        </filter>
        <linearGradient x1="50%" y1="0%" x2="50%" y2="100%" id="linearGradient-10">
            <stop stop-color="#FF9393" offset="0%"></stop>
            <stop stop-color="#FF2B2B" offset="100%"></stop>
        </linearGradient>
        <path d="M88.703196,7.23799885 L123.031855,26.7460315 C134.463265,33.2421873 138.513774,47.5411437 132.078921,58.6836443 C132.051904,58.7304252 132.024721,58.7771112 131.997372,58.8237013 L112.846285,91.4478031 C106.364087,102.490302 91.953324,106.184923 80.578102,99.7206975 L46.2494433,80.2126649 C34.8180334,73.716509 30.767524,59.4175527 37.2023774,48.2750521 C37.2293936,48.2282711 37.2565767,48.1815852 37.2839261,48.1349951 L56.4350135,15.5108933 C62.9172106,4.46839466 77.327974,0.773773025 88.703196,7.23799885 Z" id="path-11"></path>
        <filter x="-3.0%" y="-3.0%" width="105.9%" height="106.1%" filterUnits="objectBoundingBox" id="filter-12">
            <feOffset dx="0" dy="0" in="SourceAlpha" result="shadowOffsetOuter1"></feOffset>
            <feGaussianBlur stdDeviation="1" in="shadowOffsetOuter1" result="shadowBlurOuter1"></feGaussianBlur>
            <feColorMatrix values="0 0 0 0 0.233660754   0 0 0 0 0.250401661   0 0 0 0 0.332795516  0 0 0 0.115848995 0" type="matrix" in="shadowBlurOuter1"></feColorMatrix>
        </filter>
        <linearGradient x1="-15.4779091%" y1="50%" x2="148.083334%" y2="29.2872997%" id="linearGradient-13">
            <stop stop-color="#696CFF" offset="0%"></stop>
            <stop stop-color="#B992FF" offset="100%"></stop>
        </linearGradient>
        <path d="M110.335553,31.7200162 L137.337788,60.5584142 C146.356258,70.1901438 145.947433,85.3285825 136.424652,94.3710635 C136.360737,94.4317554 136.296485,94.4920874 136.2319,94.5520566 L107.678331,121.065057 C98.1314288,129.929693 83.2468131,129.373212 74.2991777,119.817134 L47.2969426,90.9787363 C38.2784725,81.3470067 38.6872974,66.2085679 48.2100786,57.166087 C48.2739942,57.1053951 48.3382459,57.0450631 48.4028307,56.9850938 L76.9564001,30.4720939 C86.503302,21.6074576 101.387918,22.163938 110.335553,31.7200162 Z" id="path-14"></path>
        <filter x="-20.9%" y="-11.1%" width="135.9%" height="135.9%" filterUnits="objectBoundingBox" id="filter-15">
            <feOffset dx="-3" dy="7" in="SourceAlpha" result="shadowOffsetOuter1"></feOffset>
            <feGaussianBlur stdDeviation="5" in="shadowOffsetOuter1" result="shadowBlurOuter1"></feGaussianBlur>
            <feColorMatrix values="0 0 0 0 0.552941176   0 0 0 0 0.490196078   0 0 0 0 1  0 0 0 0.221345061 0" type="matrix" in="shadowBlurOuter1" result="shadowMatrixOuter1"></feColorMatrix>
            <feOffset dx="-1" dy="1" in="SourceAlpha" result="shadowOffsetOuter2"></feOffset>
            <feGaussianBlur stdDeviation="0.5" in="shadowOffsetOuter2" result="shadowBlurOuter2"></feGaussianBlur>
            <feColorMatrix values="0 0 0 0 0.285722787   0 0 0 0 0.268443182   0 0 0 0 0.665874094  0 0 0 0.308375219 0" type="matrix" in="shadowBlurOuter2" result="shadowMatrixOuter2"></feColorMatrix>
            <feMerge>
                <feMergeNode in="shadowMatrixOuter1"></feMergeNode>
                <feMergeNode in="shadowMatrixOuter2"></feMergeNode>
            </feMerge>
        </filter>
    </defs>
    <g id="Logo" stroke="none" stroke-width="1" fill="none" fill-rule="evenodd">
        <g id="Rectangle">
            <g>
                <use fill="black" fill-opacity="1" filter="url(#filter-3)" xlink:href="#path-2"></use>
                <use fill="url(#linearGradient-1)" fill-rule="evenodd" xlink:href="#path-2"></use>
            </g>
            <g>
                <use fill="black" fill-opacity="1" filter="url(#filter-6)" xlink:href="#path-5"></use>
                <use fill="url(#linearGradient-4)" fill-rule="evenodd" xlink:href="#path-5"></use>
            </g>
            <g fill-rule="nonzero">
                <use fill="black" fill-opacity="1" filter="url(#filter-9)" xlink:href="#path-8"></use>
                <use fill="url(#linearGradient-7)" xlink:href="#path-8"></use>
            </g>
            <g fill-rule="nonzero">
                <use fill="black" fill-opacity="1" filter="url(#filter-12)" xlink:href="#path-11"></use>
                <use fill="url(#linearGradient-10)" xlink:href="#path-11"></use>
            </g>
            <g fill-rule="nonzero">
                <use fill="black" fill-opacity="1" filter="url(#filter-15)" xlink:href="#path-14"></use>
                <use fill="url(#linearGradient-13)" xlink:href="#path-14"></use>
            </g>
        </g>
    </g>
</svg>