<svg xmlns="http://www.w3.org/2000/svg" viewBox="0 0 50 50"><path fill="#61DAFB" d="M33.91 19.988C27.025 8.079 17.417.752 12.452 3.623 7.487 6.494 9.044 18.476 15.93 30.385S32.424 49.619 37.388 46.75c4.966-2.872 3.409-14.854-3.478-26.762zm2.355 24.802c-3.873 2.239-12.085-4.717-18.342-15.537-6.258-10.822-8.19-21.409-4.317-23.649 3.874-2.239 12.085 4.718 18.344 15.54 6.255 10.82 8.188 21.407 4.315 23.646z"/><path fill="#61DAFB" d="M33.727 30.396c6.871-11.917 8.414-23.9 3.445-26.765C32.204.766 22.606 8.105 15.734 20.022c-6.872 11.917-8.415 23.901-3.446 26.764 4.968 2.867 14.567-4.472 21.439-16.39zm-20.306 14.44c-3.875-2.235-1.956-12.825 4.289-23.654C23.955 10.354 32.157 3.387 36.034 5.621c3.875 2.235 1.955 12.825-4.29 23.654-6.243 10.829-14.447 17.796-18.323 15.561z"/><path fill="#61DAFB" d="M24.911 35.664c13.756-.001 24.908-4.654 24.906-10.389-.002-5.735-11.153-10.382-24.911-10.379C11.15 14.899-.001 19.551 0 25.287c.001 5.734 11.154 10.381 24.911 10.377zM2.257 25.292c-.001-4.473 10.131-8.102 22.631-8.105 12.499-.003 22.634 3.622 22.636 8.095 0 4.474-10.131 8.103-22.632 8.107-12.5.002-22.634-3.621-22.635-8.097z"/><circle fill="#61DAFB" cx="24.855" cy="25.191" r="4.648"/></svg>