<?xml version="1.0" encoding="UTF-8"?>
<svg width="166px" height="85px" viewBox="0 0 166 85" version="1.1" xmlns="http://www.w3.org/2000/svg" xmlns:xlink="http://www.w3.org/1999/xlink">
    <!-- Generator: Sketch 53.2 (72643) - https://sketchapp.com -->
    <title>2</title>
    <desc>Created with Sketch.</desc>
    <g id="Landing-Page" stroke="none" stroke-width="1" fill="none" fill-rule="evenodd">
        <g id="Final" transform="translate(-1357.000000, -2748.000000)">
            <g id="#3" transform="translate(0.000000, 2562.000000)">
                <g id="Group-5" transform="translate(873.000000, 78.000000)">
                    <g id="5.-Illustrations-/2.-Items/Tech-/-Laptop-Back" transform="translate(482.000000, 96.000000)">
                        <g id="Macintosh-2" transform="translate(2.068127, 12.382979)">
                            <g id="Macintosh">
                                <path d="M138.793587,84.2042553 L92.5393671,84.2042553 C88.2136246,84.2042553 84.7064994,80.6918669 84.7064994,76.3588269 L84.7064994,7.84542839 C84.7064994,3.51274917 88.2136246,0 92.5393671,0 L138.793587,0 C143.11969,0 146.626455,3.51274917 146.626455,7.84542839 L146.626455,76.3588269 C146.626455,80.6918669 143.11969,84.2042553 138.793587,84.2042553" id="Fill-3" fill="#DDEBEF"></path>
                                <path d="M118.853876,84.2042553 L71.8595879,84.2042553 C67.4646335,84.2042553 63.9013943,80.6918669 63.9013943,76.3588269 L63.9013943,7.84542839 C63.9013943,3.51274917 67.4646335,0 71.8595879,0 L118.853876,0 C123.249196,0 126.812069,3.51274917 126.812069,7.84542839 L126.812069,76.3588269 C126.812069,80.6918669 123.249196,84.2042553 118.853876,84.2042553" id="Fill-3" fill="#97B2B8"></path>
                                <path d="M112.595325,70.8306383 L65.2387877,70.8306383 C59.849362,70.8306383 55.4802803,66.4876602 55.4802803,61.1304344 L55.4802803,9.70020393 C55.4802803,4.3426188 59.849362,0 65.2387877,0 L112.595325,0 C117.984751,0 122.353832,4.3426188 122.353832,9.70020393 L122.353832,61.1304344 C122.353832,66.4876602 117.984751,70.8306383 112.595325,70.8306383" id="Fill-6" fill="#C2D5DA"></path>
                                <path d="M105.408121,50.5225532 L70.9399125,50.5225532 C66.7790594,50.5225532 63.4060346,47.1534943 63.4060346,42.9975334 L63.4060346,15.9454454 C63.4060346,11.7894844 66.7790594,8.42042553 70.9399125,8.42042553 L105.408121,8.42042553 C109.568974,8.42042553 112.941999,11.7894844 112.941999,15.9454454 L112.941999,42.9975334 C112.941999,47.1534943 109.568974,50.5225532 105.408121,50.5225532" id="Fill-8" fill="#0EC8D6"></path>
                                <path d="M112.9788,57.9523404 L89.1279353,57.9523404 C88.6012096,57.9523404 88.1740169,57.5401732 88.1740169,57.0319738 L88.1740169,56.8917809 C88.1740169,56.383231 88.6012096,55.9710638 89.1279353,55.9710638 L112.9788,55.9710638 C113.505889,55.9710638 113.932719,56.383231 113.932719,56.8917809 L113.932719,57.0319738 C113.932719,57.5401732 113.505889,57.9523404 112.9788,57.9523404" id="Fill-15" fill="#97B2B8"></path>
                                <ellipse id="Oval" fill="#F85843" cx="66.6258723" cy="56.7140426" rx="1.73375876" ry="1.73361702"></ellipse>
                                <g id="Keyboard" transform="translate(0.000000, 74.297872)">
                                    <polygon id="Fill-10" fill="#F2F8F9" points="19.0082795 0.0867146322 102.044087 0 82.1296026 5.94382979 0 5.94382979"></polygon>
                                    <polygon id="Fill-12" fill="#97B2B8" points="0.495359646 9.90638298 82.2297012 9.90638298 82.2297012 5.94382979 0.495359646 5.94382979"></polygon>
                                    <polygon id="Fill-14" fill="#DDEBEF" points="82.2297012 9.90638298 82.2297012 5.64514533 102.044087 0 102.044087 9.90638298"></polygon>
                                </g>
                                <g id="Mouse" transform="translate(146.626455, 73.802553)">
                                    <path d="M18.8236665,0.495319149 L18.8236665,5.01027017 L16.7414004,7.93757812 C15.4356406,9.4986391 13.5007754,10.4017021 11.4602058,10.4017021 L3.96287717,10.4017021 L3.96287717,6.63541949 L18.8236665,0.495319149 Z" id="Fill-16" fill="#C2D5DA"></path>
                                    <path d="M5.9086615,0.495319149 C5.9086615,0.495319149 3.15731634,3.47621031 0.673311306,6.16734822 C-0.817455936,7.78246778 0.329119993,10.3982553 2.52793794,10.3982553 L6.91027643,10.3982553 C6.91027643,10.3982553 10.6577732,10.6203024 13.271806,7.49999476 L18.8236665,0.495319149 L5.9086615,0.495319149 Z" id="Fill-17" fill="#F2F8F9"></path>
                                    <path d="M11.4634422,0.185253838 C11.6592257,-0.0452041135 11.9934506,-0.063083811 12.2099544,0.145318416 C12.4264582,0.353720643 12.4432552,0.709487111 12.2474717,0.939945063 L9.83702253,3.77729935 C9.64123902,4.0077573 9.30701414,4.025637 9.09051038,3.81723478 C8.87400661,3.60883255 8.85720952,3.25306608 9.05299304,3.02260813 L11.4634422,0.185253838 Z" id="Path" fill="#97B2B8"></path>
                                </g>
                            </g>
                        </g>
                    </g>
                </g>
            </g>
        </g>
    </g>
</svg>