<?xml version="1.0" encoding="UTF-8"?>
<svg width="198px" height="85px" viewBox="0 0 198 85" version="1.1" xmlns="http://www.w3.org/2000/svg" xmlns:xlink="http://www.w3.org/1999/xlink">
    <!-- Generator: Sketch 53.2 (72643) - https://sketchapp.com -->
    <title>3</title>
    <desc>Created with Sketch.</desc>
    <g id="Landing-Page" stroke="none" stroke-width="1" fill="none" fill-rule="evenodd">
        <g id="Final" transform="translate(-1262.000000, -3074.000000)">
            <g id="#3" transform="translate(0.000000, 2562.000000)">
                <g id="Group-5" transform="translate(873.000000, 78.000000)">
                    <g id="5.-Illustrations-/2.-Items/Tech-/-Laptop" transform="translate(389.000000, 434.000000)">
                        <path d="M115.737897,75.9863014 L102.828059,4.77188082 C102.393411,2.35916849 100.111951,0.5891 97.4374649,0.5891 L5.46438378,0.5891 C2.10016757,0.5891 -0.464913514,3.34227808 0.0708162162,6.37878493 L13.1792486,80.6497986 C13.6067622,83.0695795 15.8917892,84.8484836 18.5734108,84.8484836 L193.328924,84.8484836 C195.672816,84.8484836 197.573141,82.9664973 197.573141,80.6444973 C197.573141,78.3224973 195.672816,75.9863014 193.328924,75.9863014 L115.737897,75.9863014 Z" id="Laptop" fill="#DDEBEF"></path>
                        <path d="M12.939035,7.13387671 L96.7702333,7.13387671 C98.7085374,7.13387671 100.367925,8.52358182 100.708137,10.4317952 L109.945885,62.2453843 C110.333634,64.4202282 108.884908,66.4976201 106.710064,66.885369 C106.47832,66.9266862 106.243381,66.9474658 106.007982,66.9474658 L22.1273373,66.9474658 C20.1876368,66.9474658 18.5274766,65.5558064 18.1887863,63.6459041 L9.00048397,11.8323151 C8.61474712,9.65711341 10.065395,7.58106257 12.2405966,7.19532572 C12.471162,7.15443869 12.7048723,7.13387671 12.939035,7.13387671 Z" id="Screen" fill="#8284D3"></path>
                        <path d="M54.2184649,4.18867123 C54.2184649,4.96149315 53.5864108,5.58764384 52.8063027,5.58764384 C52.0261946,5.58764384 51.3941405,4.96149315 51.3941405,4.18867123 C51.3941405,3.41584932 52.0261946,2.78969863 52.8063027,2.78969863 C53.5864108,2.78969863 54.2184649,3.41584932 54.2184649,4.18867123" id="Laptop" fill="#97B2B8"></path>
                        <path d="M18.4982067,84.8219178 L18.5735297,84.8484247 C18.1127189,84.8484247 17.6649892,84.7924658 17.2350973,84.6929178 C16.9800162,84.6340137 16.7332595,84.5586164 16.4936378,84.4684932 C16.4835297,84.4643699 16.4734216,84.4602466 16.4639081,84.4567123 C15.9918,84.2758767 15.5529892,84.036726 15.1575838,83.7463288 C15.1456919,83.7380822 15.1338,83.7304247 15.1219081,83.721589 C14.9334216,83.5808082 14.7556378,83.4288356 14.5891514,83.2656712 C14.5695297,83.2468219 14.5510973,83.2273836 14.5314757,83.2079452 C14.206827,82.8816164 13.9297459,82.5158219 13.7073676,82.1164521 C13.6895297,82.0846438 13.6710973,82.0534247 13.6538541,82.0210274 C13.552773,81.829589 13.4653676,81.6310822 13.3910432,81.4260959 C13.376773,81.3872192 13.3648811,81.3471644 13.3512054,81.3076986 C13.2804486,81.0938767 13.2192054,80.8759315 13.1793676,80.6497397 L13.1258541,80.3446164 L0.0709351351,6.37872603 C-0.320902703,4.15745205 0.949745946,2.09227397 2.97612432,1.14156164 L16.1920044,75.9863014 L96.8536277,75.9863014 C98.2771292,76.6139364 99.2972973,78.2870336 99.2972973,80.2593453 C99.2972973,80.3077975 99.2965766,80.3560592 99.2952191,80.4041096 C99.2965766,80.45216 99.2972973,80.5004217 99.2972973,80.5488739 C99.2972973,82.5211856 98.2771292,84.1942828 96.8536277,84.8219178 L18.4982067,84.8219178 L18.4982067,84.8219178 Z" id="Laptop" fill="#C2D5DA"></path>
                        <path d="M45.5835243,81.8932055 L41.7109297,81.8932055 C40.8713622,81.8932055 40.1905514,81.2187534 40.1905514,80.3876164 L40.1905514,80.3010274 C40.1905514,79.4693014 40.8713622,78.7954384 41.7109297,78.7954384 L45.5835243,78.7954384 C46.4230919,78.7954384 47.1033081,79.4693014 47.1033081,80.3010274 L47.1033081,80.3876164 C47.1033081,81.2187534 46.4230919,81.8932055 45.5835243,81.8932055" id="Laptop" fill="#97B2B8"></path>
                        <path d="M34.2992486,82.0252096 L30.4266541,82.0252096 C29.5870865,82.0252096 28.9068703,81.3507575 28.9068703,80.5190315 L28.9068703,80.4330315 C28.9068703,79.6013055 29.5870865,78.9274425 30.4266541,78.9274425 L34.2992486,78.9274425 C35.1388162,78.9274425 35.8190324,79.6013055 35.8190324,80.4330315 L35.8190324,80.5190315 C35.8190324,81.3507575 35.1388162,82.0252096 34.2992486,82.0252096" id="Laptop" fill="#97B2B8"></path>
                        <path d="M141.329189,79.4510411 L154.16827,79.4510411 C156.365297,79.4510411 158.146108,77.686274 158.146108,75.5103562 L158.146108,75.3972603 L137.351351,75.3972603 L137.351351,75.5103562 C137.351351,77.686274 139.132162,79.4510411 141.329189,79.4510411" id="Laptop" fill="#C2D5DA"></path>
                        <path d="M51.6141778,74.8103754 C51.672791,74.7827848 51.7243508,75.0231907 51.7293398,75.347337 C51.7343289,75.6714833 51.6908579,75.9566224 51.6322447,75.984213 C51.3553448,76.1145562 45.8920912,76.1427659 36.8699433,76.0982016 C34.5699855,76.0868411 32.1288811,76.0710357 29.6195257,76.0519146 C27.7368715,76.0375689 25.9247204,76.0221986 24.2492211,76.0068282 C23.662796,76.0014486 23.1353396,75.9964532 22.6751205,75.9919701 C22.5140435,75.9904011 22.4199324,75.9894724 22.2526532,75.9878073 C22.1313956,75.9865905 22.1313956,75.9865905 22.1063156,75.9863343 C22.0474906,75.9857334 21.9998915,75.721524 22.0000002,75.3962062 C22.0001088,75.0708883 22.047884,74.8076532 22.1067091,74.8082541 C22.1317849,74.8085102 22.1317849,74.8085102 22.253038,74.809727 C22.4203125,74.8113921 22.5144219,74.8123207 22.6754958,74.8138898 C23.1357077,74.8183727 23.6631568,74.823368 24.2495745,74.8287476 C25.9250548,74.8441178 27.7371861,74.859488 29.6198193,74.8738336 C32.1291423,74.8929544 34.570213,74.9087596 36.8701335,74.9201199 C45.8235632,74.9643447 51.3476829,74.9358208 51.6141778,74.8103754 Z M76.0249107,74.8103754 C76.0671122,74.7827848 76.1042353,75.0231907 76.1078274,75.347337 C76.1114195,75.6714833 76.0801204,75.9566224 76.0379189,75.984213 C75.838551,76.1145562 71.9050084,76.1427659 65.4090619,76.0982016 C63.7530922,76.0868411 61.9954971,76.0710357 60.1887612,76.0519146 C58.8332502,76.0375689 57.5285014,76.0221986 56.3221419,76.0068282 C55.8999158,76.0014486 55.5201472,75.9964532 55.1887895,75.9919701 C55.072814,75.9904011 55.005054,75.9894724 54.884613,75.9878073 C54.7973076,75.9865905 54.7973076,75.9865905 54.7792499,75.9863343 C54.7368959,75.9857334 54.7026246,75.721524 54.7027028,75.3962062 C54.7027811,75.0708883 54.7371792,74.8076532 54.7795332,74.8082541 C54.7975878,74.8085102 54.7975878,74.8085102 54.88489,74.809727 C55.0053277,74.8113921 55.0730865,74.8123207 55.1890596,74.8138898 C55.5204122,74.8183727 55.9001756,74.823368 56.3223963,74.8287476 C57.5287422,74.8441178 58.8334767,74.859488 60.1889726,74.8738336 C61.9956852,74.8929544 63.753256,74.9087596 65.4091989,74.9201199 C71.8556682,74.9643447 75.8330344,74.9358208 76.0249107,74.8103754 Z M183.915271,74.8101587 C184.122761,74.7853404 184.305283,75.0015907 184.322944,75.2931672 C184.340605,75.5847438 184.186718,75.8412325 183.979227,75.8660509 C182.999002,75.9832974 163.659084,76.0086726 131.72068,75.9685861 C123.57883,75.9583671 114.93732,75.9441498 106.054202,75.9269499 C99.3896061,75.9140457 92.9745914,75.9002197 87.0433239,75.8863937 C84.9673788,75.8815546 83.1001832,75.8770612 81.4710077,75.8730286 C80.9007951,75.8716172 80.5676418,75.8707819 79.9754735,75.869284 C79.5462217,75.8681895 79.5462217,75.8681895 79.4574383,75.867959 C79.2491977,75.8674185 79.0806971,75.6297565 79.0810817,75.3371261 C79.0814664,75.0444957 79.2505906,74.8077101 79.4588312,74.8082506 C79.5475996,74.808481 79.5475996,74.808481 79.9768355,74.8095755 C80.5689874,74.8110733 80.9021347,74.8119086 81.472336,74.81332 C83.1014863,74.8173525 84.9686562,74.8218459 87.0445748,74.8266849 C92.9757751,74.8405108 99.39072,74.8543366 106.055241,74.8672407 C114.938245,74.8844403 123.579635,74.8986574 131.721354,74.9088763 C163.416495,74.9486575 182.971878,74.9229995 183.915271,74.8101587 Z" id="Laptop" fill="#97B2B8"></path>
                    </g>
                </g>
            </g>
        </g>
    </g>
</svg>