<?xml version="1.0" encoding="UTF-8"?>
<svg width="135px" height="246px" viewBox="0 0 135 246" version="1.1" xmlns="http://www.w3.org/2000/svg" xmlns:xlink="http://www.w3.org/1999/xlink">
    <!-- Generator: Sketch 53.2 (72643) - https://sketchapp.com -->
    <title>7</title>
    <desc>Created with Sketch.</desc>
    <g id="Landing-Page" stroke="none" stroke-width="1" fill="none" fill-rule="evenodd">
        <g id="Final" transform="translate(-953.000000, -2673.000000)">
            <g id="#3" transform="translate(0.000000, 2562.000000)">
                <g id="Group-5" transform="translate(873.000000, 78.000000)">
                    <g id="5.-Illustrations-/1.-Characters/Welcoming" transform="translate(80.000000, 10.000000)">
                        <g id="Character" transform="translate(0.000000, 23.313333)">
                            <path d="M65.048264,103.116667 C64.6772893,114.8209 68.8658405,182.982468 68.8658405,182.982468 L76.7547401,234.478333 L83.2027742,234.478333 C84.2978914,223.237439 83.2027742,199.248617 78.2895859,181.667868 C78.2895859,181.667868 80.9521946,164.546515 81.8242324,155.050535 C82.893134,143.412845 83.2725174,132.541143 83.2101937,122.586753 C83.7127407,122.745964 84.4245174,122.912076 85.2866625,122.929328 C86.2942296,122.949538 87.1158148,122.759273 87.6618895,122.586753 C88.3083747,142.552218 89.7452832,158.291934 92.7130804,179.651358 C92.7130804,179.651358 87.2656886,205.820831 91.2855699,234.478333 L98.8148714,234.478333 L104.669841,181.503728 C104.669841,181.503728 105.581449,118.794276 104.669841,103.116667 C91.4626485,103.116667 78.2554562,103.116667 65.048264,103.116667 Z" id="Fill-26" fill="#5C7594"></path>
                            <path d="M71.8518428,49.5483142 C69.7795146,56.6183758 67.84475,64.9302688 66.5672334,74.3208797 C65.0954515,85.1405823 64.8415259,94.860377 65.1294726,103.053015 C68.6819647,104.786158 74.6967948,107.266371 82.4910759,107.566481 C89.2750785,107.827659 96.8548788,106.584842 104.625,103.053015 C104.625,103.053015 99.3122863,76.8065137 102.494984,50.6452653 L90.1167307,47.075 L81.8175569,47.075 L71.8518428,49.5483142 Z" id="Fill-27" fill="#DDEBEF"></path>
                            <path d="M83.8062733,46.4631255 C84.9650906,41.983149 84.9629598,37.5982507 84.9673753,37.5839392 L92.0414051,34.5216667 C92.0414051,39.5280766 91.7025207,43.2866595 90.6316996,47.2822478 C92.7725101,48.2461286 94.1941814,49.8468479 94.2716778,51.7106887 C94.4037171,54.8858287 90.5835127,57.6228648 85.7392592,57.823353 C80.8950057,58.0238413 76.8603615,55.6120418 76.7283222,52.4364067 C76.6098197,49.5867851 79.6747254,47.0900425 83.8062733,46.4631255 Z" id="Combined-Shape" fill="#FFC7C0"></path>
                            <polygon id="Fill-29" fill="#FFC7C0" points="78.173557 47.1852809 83.8764919 45.2816667 93.5053638 49.2595301 94.275 47.8288604 89.2337343 45.8073798 78.075 54.6966667"></polygon>
                            <path d="M92.3746906,47.075 L110.41907,53.5227042 C110.41907,53.5227042 104.498591,87.601879 120.825,125.66175 C120.825,125.66175 114.586892,137.07203 97.8055953,138.535 C97.8055953,138.535 85.8848587,118.084442 84.8844028,88.6221664 C84.3135632,71.801212 87.9353225,56.3718272 92.3746906,47.075 Z" id="Fill-30" fill="#FFDF48"></path>
                            <path d="M112.275,97.2883333 C112.274067,97.2883333 112.274067,97.2878448 112.273134,97.2878448 C111.452916,92.8798153 110.873445,88.6745268 110.475,84.735 L110.475,84.7354885 C110.873911,88.6740382 111.455249,92.8817694 112.275,97.2883333 Z" id="Fill-31" fill="#EFEDDA"></path>
                            <g id="Fill-46" opacity="0.0700000003" transform="translate(100.575000, 68.595000)" fill="#343839">
                                <path d="M11.7,28.6933333 C-2.91509453,22.7913386 0.300187114,0 0.300187114,0 L9.81389719,16.0835002 C10.2318349,20.0405751 10.8396552,24.2651196 11.7,28.6933333 Z" id="Fill-32"></path>
                            </g>
                            <path d="M110.436076,53.3516667 C115.543555,60.5638424 120.878528,69.0659288 125.899271,78.885004 C129.248251,85.4354852 132.020811,91.7176453 134.325,97.5936312 C126.08662,105.562029 117.84824,113.530428 109.609859,121.498333 L104.984134,114.48309 C104.984134,114.48309 110.271031,103.993951 120.84433,96.2008231 C120.84433,96.2008231 104.920694,87.425 100.575,68.326938 C100.575,68.326938 101.457719,56.2731665 110.436076,53.3516667 Z" id="Fill-33" fill="#FFDF48"></path>
                            <path d="M60.859345,84.753989 C56.2972117,91.1209691 50.5974654,98.2767745 46.2253171,101.728048 C41.4983684,98.6835013 36.5049943,95.1915907 31.3687688,91.1939857 C25.0205306,86.253209 19.4567394,81.3203415 14.625,76.635625 L20.1334301,69.5969337 L44.4176781,86.6541065 L65.1128459,51.9381677 L78.0371927,47.075 C78.0628961,69.9568022 79.2398139,100.769552 66.2007905,138.983333 C52.0861799,137.34959 47.0591938,127.467542 47.0591938,127.467542 C53.8556243,113.082722 58.0434476,99.5406228 60.859345,84.753989 Z" id="Combined-Shape" fill="#FFDF48"></path>
                            <path d="M100.402541,24.0953586 C98.7610372,30.8139369 94.8770398,40.638229 85.7993996,45.8773854 C79.0253974,49.7866699 65.7817034,48.7637256 63.225,38.1594339 C65.490258,35.966565 71.4972987,29.1995472 71.4972987,29.1995472 L91.4036618,27.3553868 C92.5246607,24.9783757 93.9341148,21.4667458 94.7202843,17.4958625 C86.826832,18.4680512 78.5918432,14.6959826 77.1624231,11.6373603 C77.3138361,10.5848227 78.0892095,6.03385529 82.1927011,2.81212348 C87.5678645,-1.40789141 93.9811474,0.31986831 94.6427136,0.510252338 C112.871658,6.26468359 103.634967,24.7782973 103.634967,24.7782973 C103.634967,24.7782973 102.125082,24.8354642 100.402541,24.0953586 Z" id="Combined-Shape" fill="#FF6554"></path>
                            <path d="M94.3191426,24.1829278 C94.3218616,24.181168 94.3245752,24.1794141 94.3272836,24.1776661 C94.3272836,24.1776661 97.6723969,21.7871402 99.0120194,23.8240468 C100.351149,25.8604574 95.0508178,31.5496115 92.1729459,30.2809465 C92.1729459,30.2809465 91.8709052,30.1777961 91.5982665,29.8909679 C89.7275227,32.6305281 87.0312148,34.8960668 83.147498,35.6095379 C74.3877075,37.2189272 71.775,30.7471487 71.775,30.7471487 C78.501699,23.9167912 78.9802764,11.6566667 78.9802764,11.6566667 C84.2564571,16.3910983 95.8127958,16.3439821 95.8127958,16.3439821 C95.8127958,16.3439821 95.672317,20.0217836 94.3191426,24.1829278 Z" id="Combined-Shape" fill="#FFC7C0"></path>
                            <path d="M82.3263645,241.113875 L78.7961112,241.113875 L78.7961112,239.972132 C78.7961112,239.972132 74.135389,244.895308 62.4791523,243.708791 C61.8996394,243.650087 61.425,243.223737 61.425,242.635204 C61.425,242.168557 61.6997394,241.657136 62.1596078,241.614849 C65.308771,241.327796 72.2250148,239.185598 76.6065663,234.478333 L82.7453666,234.478333 C82.7453666,234.478333 83.5976495,237.831426 82.3263645,241.113875 Z" id="Fill-41" fill="#405C80"></path>
                            <path d="M91.9399646,242.261535 L96.0589215,242.261535 L96.0589215,240.922323 C96.0589215,240.922323 103.185167,247.282956 115.095689,245.305521 C115.765953,245.194045 116.325,244.736594 116.325,244.046148 C116.325,243.498814 116.004697,242.898754 115.467893,242.849544 C111.794296,242.512607 103.724936,239.999888 98.6129417,234.478333 L91.4511072,234.478333 C91.4511072,234.478333 90.4570808,238.411612 91.9399646,242.261535 Z" id="Fill-42" fill="#405C80"></path>
                            <path d="M14.5973173,58.4520132 C14.5973173,58.4520132 13.6493765,58.1011465 13.8863617,59.3888029 C14.0895628,60.4934198 15.2789602,61.9464498 15.5636405,64.5536596 C10.1661413,59.7180779 6.86623423,57.5034462 5.7742144,56.9984925 C5.25006476,56.7565662 4.68765965,57.2880189 4.91470835,57.8140737 C5.23466321,58.5545743 5.94611561,59.3888029 5.94611561,59.3888029 L12.5638154,65.6244166 L12.1405211,66.0940382 C7.01726882,61.5254097 4.53712188,60.01153 3.46298773,59.5154094 C2.93883809,59.2729923 2.37643297,59.8049358 2.60348168,60.3309905 C2.92393336,61.0714911 3.63488894,61.905229 3.63488894,61.905229 L10.2749458,68.1619438 L9.90034027,68.5780767 C9.90034027,68.5780767 1.2446672,61.7295503 0.454716551,62.5102902 C-0.335234097,63.2905393 1.16567213,64.7735034 1.16567213,64.7735034 C6.77581221,71.2505527 14.9172721,76.2166667 14.9172721,76.2166667 C16.4698481,74.2572108 18.022424,72.2982457 19.575,70.3387898 C19.575,70.3387898 18.7453034,61.7295503 14.5973173,58.4520132 Z" id="Fill-43" fill="#FFC7C0"></path>
                            <g id="Fill-47" opacity="0.0700000003" transform="translate(103.725000, 109.841667)" fill="#343839">
                                <path d="M6.46076181,13.8983333 C6.29177987,13.8983333 6.12181262,13.8409387 5.98288286,13.7236967 C0.380368103,8.99035733 0.0138300281,1.09737043 0.000528243116,0.763794849 C-0.0147441767,0.358108076 0.303020686,0.0161931064 0.710449433,0.000495431987 C1.11492223,-0.0142211377 1.4612613,0.300713454 1.47751903,0.706400227 C1.48047498,0.781945285 1.8406085,8.29377303 6.93913341,12.6018035 C7.25049371,12.8647396 7.28842843,13.3288021 7.02436336,13.6388312 C6.87804373,13.8100339 6.67014175,13.8983333 6.46076181,13.8983333 Z" id="Fill-44"></path>
                            </g>
                            <path d="M83.106145,122.395 C83.106145,122.395 84.0871966,144.998268 78.0987047,181.577365 C78.0987047,181.577365 85.7231215,203.467843 82.8126852,234.478333 L80.0180221,234.478333 C80.0180221,234.478333 83.0985946,201.592549 74.025,182.335777 C74.025,182.335777 81.8427076,158.635379 81.8427076,122.395 L83.106145,122.395 Z" id="Fill-45" fill="#405C80"></path>
                        </g>
                    </g>
                </g>
            </g>
        </g>
    </g>
</svg>