<?xml version="1.0" encoding="UTF-8"?>
<svg width="94px" height="235px" viewBox="0 0 94 235" version="1.1" xmlns="http://www.w3.org/2000/svg" xmlns:xlink="http://www.w3.org/1999/xlink">
    <!-- Generator: Sketch 53.2 (72643) - https://sketchapp.com -->
    <title>6</title>
    <desc>Created with Sketch.</desc>
    <g id="Landing-Page" stroke="none" stroke-width="1" fill="none" fill-rule="evenodd">
        <g id="Final" transform="translate(-1369.000000, -2867.000000)">
            <g id="#3" transform="translate(0.000000, 2562.000000)">
                <g id="Group-5" transform="translate(873.000000, 78.000000)">
                    <g id="5.-Illustrations-/1.-Characters/Selfie" transform="translate(453.000000, 193.000000)">
                        <g id="Character" transform="translate(42.975000, 34.970000)">
                            <path d="M49.5437661,7.62166667 C49.5437661,7.62166667 23.563719,17.9516104 34.3445738,64.4808644 C38.0840814,80.6221962 51.9145839,92.7695233 68.5997271,94.0379827 C69.0097665,94.068714 69.4243035,94.0941467 69.843017,94.114281 C76.5755229,94.4321906 83.3207722,92.6635534 87.9995473,87.3777759 C89.3387879,85.864526 90.5820778,83.7843373 91.506353,81.2686124 C94.7387996,72.4667544 92.2910927,62.3741832 85.7533797,56.1346768 C79.3047637,49.981006 69.0787311,38.2427226 67.9524882,24.8332942 C67.9524882,24.8332942 62.4797638,8.16529214 49.5437661,7.62166667 Z" id="Fill-1" fill="#F85843"></path>
                            <path d="M72.9412854,213.444494 L75.2284031,222.530664 C75.2284031,222.530664 71.1383463,227.639193 69.5732182,232.812037 C69.3986426,233.388703 69.7210805,234.097559 70.1709283,234.024828 C72.3859409,233.665598 77.0140203,229.385704 79.425,223.320559 L77.3957283,212.51 L72.9412854,213.444494 Z" id="Fill-2" fill="#343839"></path>
                            <path d="M48.8555468,216.993333 L51.1233394,228.516924 C51.1233394,228.516924 58.6588133,228.301007 63.5022885,230.649037 C64.0422748,230.911046 64.3278662,231.633229 63.9581197,231.919407 C62.1377964,233.327626 55.7828526,233.87036 49.6988131,231.547461 L44.325,217.392336 L48.8555468,216.993333 Z" id="Fill-3" fill="#343839"></path>
                            <path d="M36.950672,84.735 C36.950672,84.735 28.7340274,90.5397889 24.4925766,101.094336 C20.2516589,111.647823 32.3564868,196.254557 43.4891622,217.89 L49.9097187,217.89 C49.9097187,217.89 41.456887,143.723712 43.5774524,116.340266 L46.2281859,116.340266 C48.3795677,131.450867 51.4581037,147.999132 55.8592873,165.64828 C60.5567978,184.486725 65.5665231,200.350919 71.1505615,215.473938 L79.425,213.668075 C79.425,213.668075 72.3371483,134.426391 61.0106182,91.5958805 C61.0106182,91.5958805 48.613942,92.1233956 36.950672,84.735 Z" id="Fill-4" fill="#049AC6"></path>
                            <path d="M73.9892278,56.2557905 C77.4615811,50.1512234 80.9688749,44.6243644 80.9688749,44.6243644 L84.375,45.8251843 C84.375,45.8251843 77.7783339,72.1681214 72.7124375,77.3429932 C72.6389837,77.5290033 72.5628318,77.7109477 72.4839155,77.8886408 C72.4839155,77.8886408 67.8364302,80.4430316 65.8942215,74.7339682 C64.6182224,70.9843354 64.139401,63.0902036 63.9608084,58.1133989 L63.0831836,69.2462854 L35.5543841,67.8349845 L37.4488608,55.3035691 C22.1264679,55.9549387 4.94252802,56.1177812 0.225,53.9444203 C0.225,53.9444203 0.451110117,29.8692873 3.91698778,17.0366667 L8.18133021,17.0366667 L8.18133021,46.6026755 C8.18133021,46.6026755 36.2210228,41.774877 42.6201107,40.5849566 C42.6201107,40.5849566 45.686756,37.0120025 45.2865582,30.3982591 L51.8148979,30.3982591 C51.8148979,30.3982591 49.2862832,40.9808872 61.5072776,39.2609307 C61.5072776,39.2609307 70.8841972,37.1450437 72.4839155,45.6117848 C73.0283547,48.493139 73.6037214,52.2480393 73.9892278,56.2557905 Z" id="Combined-Shape" fill="#FFC7C0"></path>
                            <path d="M36.2202357,40.628399 C32.826437,50.8130903 29.4329616,66.7875999 28.575,89.9733928 C39.267724,97.6238452 62.0890721,96.7221696 66.375,90.9482633 C62.8439921,67.6128983 64.7214838,38.5566667 64.7214838,38.5566667 L61.1711825,38.5566667 C61.1711825,38.5566667 59.8986831,54.6414989 48.6861163,55.0562697 C46.5099548,55.1368901 44.807828,54.7571255 43.4860713,54.1057975 C40.9413959,52.8508772 39.4324181,50.1914645 39.5626214,47.3941485 L40.4730739,40.2709111 L36.2202357,40.628399 Z" id="Fill-6" fill="#FFEB8F"></path>
                            <path d="M43.446215,16.691952 C40.6269868,22.5456085 40.6325045,30.1857567 46.6866287,32.2846985 C51.2930558,33.880957 56.6059669,31.0869732 59.4243295,25.2333167 C62.2440986,19.3796603 61.1112358,13.0467012 56.8950519,11.0869803 C52.6794089,9.12832225 46.2654431,10.8393584 43.446215,16.691952 Z" id="Fill-7" fill="#FFC7C0"></path>
                            <path d="M47.025,9.5347731 C47.025,9.5347731 56.1814781,-6.79619739 75.8016984,3.28759825 C77.6127042,4.21875475 83.1195511,8.8254729 75.5060609,12.7218242 C75.5060609,12.7218242 70.5034868,15.8534113 68.4226574,24.6583333 C68.4226574,24.6583333 61.2726478,12.9778123 47.025,9.5347731 Z" id="Fill-8" fill="#8284D3"></path>
                            <path d="M53.025,20.3244444 C53.025,17.1878609 55.6106474,14.6455556 58.8000528,14.6455556 C61.9894582,14.6455556 64.575,17.1878609 64.575,20.3244444 C64.575,23.461028 61.9894582,26.0033333 58.8000528,26.0033333 C55.6106474,26.0033333 53.025,23.461028 53.025,20.3244444 Z M42.525,14.646075 C42.525,11.5097783 45.1106238,8.96666667 48.3,8.96666667 C51.4893762,8.96666667 54.075,11.5097783 54.075,14.646075 C54.075,17.7823716 51.4893762,20.3244444 48.3,20.3244444 C45.1106238,20.3244444 42.525,17.7823716 42.525,14.646075 Z" id="Combined-Shape" fill="#343839"></path>
                            <path d="M88.8143849,34.9880231 L91.725,36.5607324 C88.3894705,43.7248308 84.3884018,46.1783333 84.3884018,46.1783333 L81.225,44.8013238 C81.7175962,40.0222966 83.4344329,35.0457578 84.0944882,33.2636506 L86.0755674,25.3542355 C86.0755674,25.3542355 86.5994118,23.9393761 87.43618,24.2562622 C87.43618,24.2562622 88.2724164,24.5720885 87.9927846,25.8258553 L86.1654867,33.5567288 L86.853872,33.928688 L91.7633873,26.0846127 C91.7633873,26.0846127 92.7742247,24.8005539 93.4992455,25.4295692 C93.4992455,25.4295692 94.2238493,26.0574999 93.5116542,27.2623895 L88.8143849,34.9880231 Z" id="Combined-Shape" fill="#F4B9B2"></path>
                            <path d="M88.2988578,37.7037522 C88.2988578,37.7037522 87.2944891,38.9973326 86.5327966,38.3983348 C86.5327966,38.3983348 85.770678,37.799337 86.471009,36.5928449 L88.1925404,33.7093714 C88.5012656,33.1921516 89.1724072,33.0222232 89.6912103,33.3302185 C90.2145942,33.6414 90.3819534,34.3189897 90.0636406,34.8362095 L88.2988578,37.7037522 Z" id="Fill-15" fill="#FFC7C0"></path>
                            <path d="M90.4141306,39.1249608 C90.4141306,39.1249608 89.3762044,40.3779775 88.7035493,39.7010083 C88.7035493,39.7010083 88.0308943,39.0240391 88.7761678,37.8356577 L90.6017976,34.9996443 C90.9299296,34.4905 91.5729148,34.3691671 92.0382958,34.7274959 C92.507619,35.0892265 92.6157168,35.7990803 92.2791818,36.3082246 L90.4141306,39.1249608 Z" id="Fill-16" fill="#FFC7C0"></path>
                            <path d="M80.7617174,44.6210186 C80.7617174,44.6210186 79.2022391,39.2519303 80.2195287,35.6779287 C80.2195287,35.6779287 84.5126234,34.6871271 86.0530521,33.1766667 C86.0530521,33.1766667 87.3399349,34.4272977 86.0530521,35.5884439 C84.7662729,36.7506682 82.5359177,37.2864989 82.5359177,37.2864989 C82.5359177,37.2864989 84.8210405,40.5715616 84.0057386,42.8248537 C83.9872067,42.934823 83.7723811,44.0905786 82.707364,44.6113154 C81.7661692,45.0727552 80.8903021,44.6813939 80.7617174,44.6210186 Z" id="Fill-17" fill="#FFC7C0"></path>
                            <path d="M8.16747085,5.76415575 L9.19166667,13.2192429 L8.94458078,13.4689176 C10.4804039,12.8787884 12.0720461,12.5047425 13.3222436,12.5958986 C16.6849815,12.8412186 16.4200933,14.1973814 16.4200933,14.1973814 C16.4200933,14.1973814 11.7190741,13.8235605 8.03619211,17.7550523 C8.03619211,17.7550523 7.16274263,18.8680191 5.89483554,18.8287255 C5.89483554,18.8287255 4.04599164,18.9099602 3.59875032,17.7753526 L3.25963333,17.7887097 L2.48582721,8.41006649 C2.41564025,7.55824084 2.68877251,6.70962559 3.24460797,6.0525641 L5.12778297,3.82858417 C5.28783649,3.36317025 5.73439555,2.94309839 6.56879979,2.69009657 C6.56879979,2.69009657 11.5890749,2.65954782 13.8477865,3.68511291 C14.581984,4.01787605 14.5078984,5.06744372 13.7312153,5.30746959 C12.7737038,5.60286092 11.0774573,5.94328179 8.16747085,5.76415575 Z" id="Combined-Shape" fill="#FFC7C0"></path>
                            <path d="M21.2171257,4.37407999 L22.2643669,11.1170153 C22.3449329,11.6369581 21.9586863,12.123093 21.4103666,12.1907089 L7.71343064,13.8904322 C7.186164,13.9557165 6.70476709,13.6094765 6.6279647,13.1093522 L5.63553197,6.66485936 C5.55661251,6.1530771 5.92980391,5.67393699 6.4670678,5.5946632 L17.8980392,3.92058728 L20.1091954,3.59766316 C20.6434013,3.51955516 21.1383239,3.8657951 21.2171257,4.37407999 Z" id="Fill-19" fill="#405C80"></path>
                        </g>
                    </g>
                </g>
            </g>
        </g>
    </g>
</svg>