<?xml version="1.0" encoding="UTF-8"?>
<svg width="161px" height="70px" viewBox="0 0 161 70" version="1.1" xmlns="http://www.w3.org/2000/svg" xmlns:xlink="http://www.w3.org/1999/xlink">
    <!-- Generator: Sketch 53.2 (72643) - https://sketchapp.com -->
    <title>5</title>
    <desc>Created with Sketch.</desc>
    <g id="Landing-Page" stroke="none" stroke-width="1" fill="none" fill-rule="evenodd">
        <g id="Final" transform="translate(-873.000000, -2955.000000)">
            <g id="#3" transform="translate(0.000000, 2562.000000)">
                <g id="Group-5" transform="translate(873.000000, 78.000000)">
                    <g id="5.-Illustrations-/2.-Items/Cabinets-/-Shelf" transform="translate(0.000000, 315.000000)">
                        <g id="Shelf">
                            <path d="M35.2702098,52.1893491 L39.4201031,52.1893491 L37.3447477,70 L35.2702098,70 L33.1956719,70 L31.121134,52.1893491 L35.2702098,52.1893491 Z M9.54422321,52.1893491 L13.693299,52.1893491 L11.6187611,70 L9.54422321,70 L7.46927655,70 L5.3943299,52.1893491 L9.54422321,52.1893491 Z M153.116184,52.1893491 L157.265464,52.1893491 L155.190824,70 L153.116184,70 L151.041135,70 L148.966495,52.1893491 L153.116184,52.1893491 Z M126.974431,52.1893491 L131.123711,52.1893491 L129.049071,70 L126.974431,70 L124.899382,70 L122.824742,52.1893491 L126.974431,52.1893491 Z" id="Legs" fill="#FF6554"></path>
                            <polygon fill="#8284D3" points="44.814433 60.4733728 161 60.4733728 161 0 44.814433 0"></polygon>
                            <polygon fill="#484981" points="0 60.4733728 44.814433 60.4733728 44.814433 0 0 0"></polygon>
                            <polygon fill="#484981" points="53.5283505 53.4319527 153.945876 53.4319527 153.945876 7.04142012 53.5283505 7.04142012"></polygon>
                            <g id="Books" transform="translate(58.922680, 10.769231)">
                                <path d="M42.1791043,43.1244734 L0.344820055,43.1244734 C0.155794263,43.1244734 0.002519001,42.9699763 0.002519001,42.7794438 L0.002519001,33.9760118 C0.002519001,33.7850651 0.155794263,33.630568 0.344820055,33.630568 L42.1791043,33.630568 C42.3685411,33.630568 42.5218163,33.7850651 42.5218163,33.9760118 L42.5218163,42.7794438 C42.5218163,42.9699763 42.3685411,43.1244734 42.1791043,43.1244734" id="Book" fill="#FFEB8F"></path>
                                <path d="M89.2682234,42.8360651 L89.2682234,0.554822485 C89.2682234,0.395769231 89.3964322,0.266538462 89.5542277,0.266538462 L94.5769717,0.266538462 C94.7351781,0.266538462 94.862976,0.395769231 94.862976,0.554822485 L94.862976,42.8360651 C94.862976,42.9955325 94.7351781,43.1243491 94.5769717,43.1243491 L89.5542277,43.1243491 C89.3964322,43.1243491 89.2682234,42.9955325 89.2682234,42.8360651" id="Book" fill="#FFDF48"></path>
                                <path d="M79.5428464,42.5043728 L83.247752,0.38839645 C83.2613125,0.229757396 83.4002054,0.112538462 83.5580008,0.126621302 L88.5606095,0.57395858 C88.7184049,0.587627219 88.834286,0.72804142 88.8207254,0.886266272 L85.1162308,43.0026568 C85.1018484,43.1608817 84.9629556,43.2785148 84.805982,43.2640178 L79.8025514,42.8170947 C79.6451669,42.8030118 79.528875,42.6630118 79.5428464,42.5043728" id="Book" fill="#FF6554"></path>
                                <path d="M60.9476807,40.2048107 L76.0676894,0.765816568 C76.1248081,0.617532544 76.2904111,0.543390533 76.4375225,0.600964497 L83.0008268,3.1574142 C83.1483491,3.21498817 83.2219047,3.38191124 83.1647861,3.53060947 L68.0447773,42.9691893 C67.9880696,43.1178876 67.8220556,43.1916154 67.6749443,43.1344556 L61.1112291,40.5780059 C60.9641177,40.520432 60.890562,40.3535089 60.9476807,40.2048107" id="Book" fill="#37D7E3"></path>
                                <path d="M5.76566885,24.9157751 L47.7125468,24.9157751 C47.8707531,24.9157751 47.998551,25.0450059 47.998551,25.2040592 L47.998551,33.342284 C47.998551,33.5017515 47.8707531,33.630568 47.7125468,33.630568 L5.76566885,33.630568 C5.6078734,33.630568 5.47966461,33.5017515 5.47966461,33.342284 L5.47966461,25.2040592 C5.47966461,25.0450059 5.6078734,24.9157751 5.76566885,24.9157751" id="Book" fill="#0EC8D6"></path>
                            </g>
                        </g>
                    </g>
                </g>
            </g>
        </g>
    </g>
</svg>