<?xml version="1.0" encoding="UTF-8"?>
<svg width="209px" height="120px" viewBox="0 0 209 120" version="1.1" xmlns="http://www.w3.org/2000/svg" xmlns:xlink="http://www.w3.org/1999/xlink">
    <!-- Generator: Sketch 53.2 (72643) - https://sketchapp.com -->
    <title>4</title>
    <desc>Created with Sketch.</desc>
    <g id="Landing-Page" stroke="none" stroke-width="1" fill="none" fill-rule="evenodd">
        <g id="Final" transform="translate(-1044.000000, -3103.000000)">
            <g id="#3" transform="translate(0.000000, 2562.000000)">
                <g id="Group-5" transform="translate(873.000000, 78.000000)">
                    <g id="5.-Illustrations-/2.-Items/Tech-/-iMac,-Mouse,-Keyboard" transform="translate(171.000000, 462.000000)">
                        <g id="iMac" transform="translate(0.000000, 1.469636)">
                            <polygon id="Leg" fill="#C2D5DA" points="66.2442735 98.0175931 56.1013535 115.587577 34.0321854 115.587577 44.5310912 98.0175931"></polygon>
                            <path d="M78.6155225,119.530364 L33.9959016,119.530364 L33.9959016,115.611336 L74.4796783,115.611336 C76.7637172,115.611336 78.6155225,117.366063 78.6155225,119.530364" id="Leg" fill="#DDEBEF"></path>
                            <path d="M60.7069672,119.530364 L33.9959016,119.530364 L33.9959016,115.611336 L58.2310877,115.611336 C59.5984035,115.611336 60.7069672,117.366063 60.7069672,119.530364" id="Leg" fill="#97B2B8"></path>
                            <path d="M12.1413934,74.951417 L0.0813040663,6.74611741 C-0.53207913,3.20821457 2.40322415,0 6.25350284,0 L111.505786,0 C114.566874,0 117.177759,2.06287854 117.67507,4.87380162 L130.072633,74.951417 L12.1413934,74.951417 Z" id="Path" fill="#6D8388"></path>
                            <polygon id="Rectangle" fill="#0EC8D6" points="7.7704918 6.8582996 110.729508 6.8582996 122.196011 67.972083 19.2369945 67.972083"></polygon>
                            <path d="M133.20517,91.3143401 L130.310662,74.951417 L12.1413934,74.951417 L15.3025266,93.1866559 C15.7910963,96.0063968 18.4063525,98.0790729 21.4747254,98.0790729 L127.035885,98.0790729 C130.89442,98.0790729 133.832152,94.8581215 133.20517,91.3143401" id="Allum" fill="#DDEBEF"></path>
                            <ellipse id="Oval" fill="#97B2B8" cx="75.7622951" cy="86.708502" rx="3.8852459" ry="4.89878543"></ellipse>
                        </g>
                        <g id="Keyboard" transform="translate(92.760246, 114.631579)">
                            <path d="M81.1750066,6.36842105 L22.2304997,6.36842105 L22.2304997,4.35734072 L83.1959611,4.35734072 C83.1959611,5.46812742 82.2909103,6.36842105 81.1750066,6.36842105" fill="#DDEBEF"></path>
                            <polygon fill="#C2D5DA" points="22.2304997 4.3175736 0 0 0 6.36842105 22.2304997 6.31029987"></polygon>
                            <polygon fill="#F2F8F9" points="60.0178524 0 83.1959611 4.35734072 22.2921433 4.35734072 0 0"></polygon>
                            <path d="M57.0598026,3.0166205 C56.8741519,3.0166205 56.7236522,2.8628989 56.7236522,2.67327369 C56.7236522,2.48364849 56.8741519,2.32992689 57.0598026,2.32992689 L68.7131291,2.32992689 C68.8987798,2.32992689 69.0492795,2.48364849 69.0492795,2.67327369 C69.0492795,2.8628989 68.8987798,3.0166205 68.7131291,3.0166205 L57.0598026,3.0166205 Z M23.2207168,3.0166205 C23.0350661,3.0166205 22.8845664,2.8628989 22.8845664,2.67327369 C22.8845664,2.48364849 23.0350661,2.32992689 23.2207168,2.32992689 L53.8107408,2.32992689 C53.9963915,2.32992689 54.1468912,2.48364849 54.1468912,2.67327369 C54.1468912,2.8628989 53.9963915,3.0166205 53.8107408,3.0166205 L23.2207168,3.0166205 Z M40.9805517,1.35705372 C40.794901,1.35705372 40.6444013,1.20333212 40.6444013,1.01370692 C40.6444013,0.824081711 40.794901,0.670360111 40.9805517,0.670360111 L57.0599707,0.670360111 C57.2456214,0.670360111 57.3961211,0.824081711 57.3961211,1.01370692 C57.3961211,1.20333212 57.2456214,1.35705372 57.0599707,1.35705372 L40.9805517,1.35705372 Z M13.4723548,1.35705372 C13.2867041,1.35705372 13.1362044,1.20333212 13.1362044,1.01370692 C13.1362044,0.824081711 13.2867041,0.670360111 13.4723548,0.670360111 L24.4533804,0.670360111 C24.6390312,0.670360111 24.7895308,0.824081711 24.7895308,1.01370692 C24.7895308,1.20333212 24.6390312,1.35705372 24.4533804,1.35705372 L13.4723548,1.35705372 Z" fill="#C2D5DA"></path>
                        </g>
                        <g id="Mouse" transform="translate(185.034836, 114.631579)">
                            <path d="M22.1531829,6.36078394 C22.1662768,6.53585472 23.3721824,3.6429056 23.3721824,3.6429056 C20.9785337,1.54169895 17.0748631,-0.246318572 12.8108991,0.027880844 C9.04957183,0.269871364 5.41876112,1.47685735 2.15035567,3.36023016 C1.30516578,3.84717781 0.52164393,4.53759092 0,5.01860535 L0,6.36078394 L22.1531829,6.36078394 Z" fill="#DDEBEF"></path>
                            <path d="M0,6.36842105 L0,5.02553939 C0,5.02553939 3.72193157,3.47361425 9.05835733,3.40025823 C18.2220444,3.2738993 22.0973361,6.36842105 22.0973361,6.36842105 L0,6.36842105 Z" fill="#C2D5DA"></path>
                        </g>
                    </g>
                </g>
            </g>
        </g>
    </g>
</svg>