<?xml version="1.0" encoding="UTF-8"?>
<svg width="117px" height="32px" viewBox="0 0 117 32" version="1.1" xmlns="http://www.w3.org/2000/svg" xmlns:xlink="http://www.w3.org/1999/xlink">
    <!-- Generator: Sketch 53.2 (72643) - https://sketchapp.com -->
    <title>1</title>
    <desc>Created with Sketch.</desc>
    <g id="Landing-Page" stroke="none" stroke-width="1" fill="none" fill-rule="evenodd">
        <g id="Final" transform="translate(-906.000000, -3074.000000)">
            <g id="#3" transform="translate(0.000000, 2562.000000)">
                <g id="Group-5" transform="translate(873.000000, 78.000000)">
                    <g id="5.-Illustrations-/2.-Items/Tech-/-Laptop-Back" transform="translate(33.000000, 434.000000)">
                        <g id="Group">
                            <path d="M102.476593,0 L85.5149502,0 C93.1880744,2.97345133 96.3461708,10.9507965 95.6111662,18.1238938 C94.6731605,27.2781593 86.207416,31.6052389 85.5149502,32 L102.476593,32 C110.283257,32 116.611296,24.836531 116.611296,16 C116.611296,7.16346903 110.283257,0 102.476593,0" id="Fill-1" fill="#DDEBEF"></path>
                            <path d="M95.9060773,18.1238938 C96.6371247,11.0198938 93.5286872,3.13373451 85.9885784,0.0945840708 C85.5136407,0.0334159292 85.0316789,0 84.5432333,0 L13.389569,0 C5.99480522,0 0,7.16346903 0,16 C0,24.836531 5.99480522,32 13.389569,32 L84.5432333,32 C85.0116872,32 85.4736573,31.9705487 85.9291436,31.9150442 C87.2604821,31.1827257 95.0096931,26.8454513 95.9060773,18.1238938" id="Fill-4" fill="#C2D5DA"></path>
                            <path d="M89.4019934,15.5949367 C89.4019934,21.9707712 84.4653673,27.1392405 78.3755351,27.1392405 C72.2862407,27.1392405 67.3490768,21.9707712 67.3490768,15.5949367 C67.3490768,9.21910219 72.2862407,4.05063291 78.3755351,4.05063291 C84.4653673,4.05063291 89.4019934,9.21910219 89.4019934,15.5949367 Z M27.494777,15.5949367 C27.494777,21.9707712 22.558151,27.1392405 16.4683187,27.1392405 C10.3784865,27.1392405 5.44186047,21.9707712 5.44186047,15.5949367 C5.44186047,9.21910219 10.3784865,4.05063291 16.4683187,4.05063291 C22.558151,4.05063291 27.494777,9.21910219 27.494777,15.5949367 Z" id="Combined-Shape" fill="#049AC6"></path>
                            <path d="M83.1827243,15.3924051 C83.1827243,18.0766632 81.1014548,20.2531646 78.5334455,20.2531646 C75.9654362,20.2531646 73.8841668,18.0766632 73.8841668,15.3924051 C73.8841668,12.708147 75.9654362,10.5316456 78.5334455,10.5316456 C81.1014548,10.5316456 83.1827243,12.708147 83.1827243,15.3924051 Z M21.3483914,15.3924051 C21.3483914,18.0766632 19.2665847,20.2531646 16.6991126,20.2531646 C14.1316406,20.2531646 12.0498339,18.0766632 12.0498339,15.3924051 C12.0498339,12.708147 14.1316406,10.5316456 16.6991126,10.5316456 C19.2665847,10.5316456 21.3483914,12.708147 21.3483914,15.3924051 Z" id="Combined-Shape" fill="#0EC8D6"></path>
                            <path d="M45.0907394,29.164557 L43.0013185,29.164557 C42.2224854,29.164557 41.5913621,28.480107 41.5913621,27.6354667 L41.5913621,27.4531409 C41.5913621,26.6085006 42.2224854,25.9240506 43.0013185,25.9240506 L45.0907394,25.9240506 C45.8695725,25.9240506 46.5006958,26.6085006 46.5006958,27.4531409 L46.5006958,27.6354667 C46.5006958,28.480107 45.8695725,29.164557 45.0907394,29.164557 Z M53.2024196,29.164557 L51.1124615,29.164557 C50.3341656,29.164557 49.7025052,28.480107 49.7025052,27.6354667 L49.7025052,27.4531409 C49.7025052,26.6085006 50.3341656,25.9240506 51.1124615,25.9240506 L53.2024196,25.9240506 C53.9812526,25.9240506 54.6123759,26.6085006 54.6123759,27.4531409 L54.6123759,27.6354667 C54.6123759,28.480107 53.9812526,29.164557 53.2024196,29.164557 Z M61.171439,29.164557 L59.082018,29.164557 C58.303185,29.164557 57.6720617,28.480107 57.6720617,27.6354667 L57.6720617,27.4531409 C57.6720617,26.6085006 58.303185,25.9240506 59.082018,25.9240506 L61.171439,25.9240506 C61.950272,25.9240506 62.5813953,26.6085006 62.5813953,27.4531409 L62.5813953,27.6354667 C62.5813953,28.480107 61.950272,29.164557 61.171439,29.164557 Z" id="Buttons" fill="#97B2B8"></path>
                            <path d="M36.7535433,29.164557 L34.7680514,29.164557 C34.0286584,29.164557 33.4285714,28.480107 33.4285714,27.6354667 L33.4285714,27.4531409 C33.4285714,26.6085006 34.0286584,25.9240506 34.7680514,25.9240506 L36.7535433,25.9240506 C37.4934465,25.9240506 38.0930233,26.6085006 38.0930233,27.4531409 L38.0930233,27.6354667 C38.0930233,28.480107 37.4934465,29.164557 36.7535433,29.164557" id="Fill-17" fill="#FF6554"></path>
                        </g>
                    </g>
                </g>
            </g>
        </g>
    </g>
</svg>